<?xml version="1.0" encoding="UTF-8"?>
<svg xmlns="http://www.w3.org/2000/svg" xmlns:xlink="http://www.w3.org/1999/xlink" width="200px" height="200px" viewBox="0 0 200 200" version="1.1">
<g id="surface1">
<path style=" stroke:none;fill-rule:nonzero;fill:rgb(1.568628%,1.960784%,1.960784%);fill-opacity:1;" d="M 157.402344 16.949219 C 160.417969 19.320312 161.453125 21.382812 162.5 25 C 163.835938 26.539062 163.835938 26.539062 165.625 27.34375 C 166.222656 27.289062 166.820312 27.234375 167.433594 27.179688 C 171.605469 27.507812 174.316406 31.5625 176.964844 34.558594 C 186.9375 46.425781 193.453125 60.164062 197.65625 75 C 197.921875 75.921875 198.191406 76.839844 198.464844 77.789062 C 204.335938 102.644531 199.183594 129.628906 186.71875 151.5625 C 184.207031 155.535156 181.578125 159.527344 178.507812 163.085938 C 177.007812 165.351562 176.535156 167.445312 175.914062 170.082031 C 175.65625 171.117188 175.402344 172.148438 175.144531 173.183594 C 174.753906 174.796875 174.367188 176.410156 173.988281 178.027344 C 171.140625 190.109375 171.140625 190.109375 166.40625 193.75 C 163.167969 195.421875 160.054688 195.40625 156.492188 194.921875 C 153.6875 193.652344 152.316406 192.332031 150.433594 189.957031 C 149.226562 188.867188 149.226562 188.867188 147.40625 189.179688 C 145.070312 189.917969 143.007812 190.890625 140.820312 191.992188 C 136.769531 193.898438 132.757812 195.410156 128.46875 196.679688 C 127.953125 196.835938 127.4375 196.988281 126.90625 197.148438 C 118.140625 199.644531 109.476562 200.320312 100.390625 200.292969 C 99.84375 200.292969 99.296875 200.292969 98.730469 200.292969 C 76.265625 200.210938 56.324219 193.113281 38.28125 179.6875 C 37.558594 179.160156 36.835938 178.632812 36.09375 178.089844 C 33.78125 176.035156 33.5625 174.039062 32.8125 171.09375 C 31.382812 168.910156 30.535156 168.765625 27.929688 168.210938 C 18.714844 164.988281 12.320312 150.328125 8.304688 142 C 5.84375 136.492188 4.003906 130.789062 2.34375 125 C 2.074219 124.078125 1.808594 123.15625 1.53125 122.203125 C -4.488281 96.65625 1.015625 68.742188 14.386719 46.519531 C 16.066406 43.820312 17.828125 41.308594 19.875 38.867188 C 23.519531 34.226562 23.871094 28.003906 24.769531 22.339844 C 24.863281 21.75 24.960938 21.164062 25.058594 20.558594 C 25.242188 19.414062 25.414062 18.269531 25.574219 17.117188 C 26.28125 12.59375 27.910156 9.429688 31.300781 6.347656 C 34.910156 4.964844 38.375 4.957031 42.1875 5.46875 C 45.339844 7.074219 47.601562 9.136719 50 11.71875 C 52.433594 10.757812 54.851562 9.761719 57.265625 8.746094 C 90.3125 -4.984375 127.378906 -3.601562 157.402344 16.949219 Z M 157.402344 16.949219 "/>
<path style=" stroke:none;fill-rule:nonzero;fill:rgb(98.823529%,92.54902%,83.92157%);fill-opacity:1;" d="M 144.382812 38.234375 C 161.046875 50.960938 172.402344 68.429688 175.535156 89.332031 C 177.46875 105.679688 174.339844 119.460938 167.96875 134.375 C 162.296875 134.375 156.625 134.375 150.78125 134.375 C 150.78125 117.359375 150.78125 100.34375 150.78125 82.8125 C 152.328125 82.039062 153.875 81.265625 155.46875 80.46875 C 156.511719 77.277344 156.488281 75.609375 155.265625 72.480469 C 154.769531 71.640625 154.269531 70.800781 153.757812 69.933594 C 153.488281 69.480469 153.222656 69.023438 152.945312 68.554688 C 152.378906 67.601562 151.804688 66.648438 151.226562 65.703125 C 150.34375 64.261719 149.492188 62.804688 148.644531 61.34375 C 148.085938 60.414062 147.53125 59.484375 146.96875 58.558594 C 146.214844 57.300781 146.214844 57.300781 145.441406 56.023438 C 142.886719 52.828125 140.324219 51.742188 136.328125 51.171875 C 132.910156 51.660156 131.171875 52.984375 128.90625 55.46875 C 127.101562 58.140625 125.558594 60.9375 124.023438 63.769531 C 123.207031 65.246094 122.386719 66.71875 121.570312 68.195312 C 121.039062 69.167969 121.039062 69.167969 120.496094 70.164062 C 119.714844 71.550781 118.851562 72.894531 117.96875 74.21875 C 117.570312 77.878906 117.570312 77.878906 118.945312 81.152344 C 120.5 82.257812 120.5 82.257812 123.4375 82.8125 C 123.4375 99.828125 123.4375 116.84375 123.4375 134.375 C 120.34375 134.375 117.25 134.375 114.0625 134.375 C 114.058594 132.878906 114.054688 131.386719 114.054688 129.847656 C 114.039062 124.90625 114.003906 119.960938 113.960938 115.019531 C 113.933594 112.023438 113.914062 109.027344 113.910156 106.03125 C 113.90625 103.140625 113.882812 100.246094 113.847656 97.355469 C 113.839844 96.253906 113.835938 95.148438 113.839844 94.046875 C 113.84375 92.5 113.820312 90.953125 113.796875 89.410156 C 113.789062 88.089844 113.789062 88.089844 113.78125 86.742188 C 113.125 83.628906 111.8125 82.445312 109.375 80.46875 C 107.179688 79.875 107.179688 79.875 104.832031 79.949219 C 103.976562 79.945312 103.121094 79.941406 102.242188 79.933594 C 101.355469 79.949219 100.472656 79.964844 99.5625 79.980469 C 98.671875 79.964844 97.785156 79.949219 96.871094 79.933594 C 96.015625 79.941406 95.164062 79.945312 94.285156 79.949219 C 93.117188 79.957031 93.117188 79.957031 91.929688 79.964844 C 89.03125 80.667969 88.332031 81.902344 86.71875 84.375 C 86.242188 86.78125 86.242188 86.78125 86.292969 89.410156 C 86.277344 90.410156 86.261719 91.410156 86.246094 92.441406 C 86.246094 93.523438 86.242188 94.609375 86.242188 95.695312 C 86.230469 96.808594 86.21875 97.925781 86.203125 99.039062 C 86.167969 101.96875 86.152344 104.894531 86.140625 107.820312 C 86.125 110.8125 86.09375 113.800781 86.0625 116.792969 C 86.003906 122.652344 85.964844 128.515625 85.9375 134.375 C 82.84375 134.375 79.75 134.375 76.5625 134.375 C 76.558594 133.417969 76.554688 132.457031 76.554688 131.472656 C 76.535156 127.921875 76.492188 124.371094 76.441406 120.820312 C 76.425781 119.28125 76.414062 117.742188 76.410156 116.207031 C 76.402344 113.996094 76.371094 111.789062 76.332031 109.578125 C 76.335938 108.890625 76.339844 108.203125 76.34375 107.492188 C 76.300781 105.695312 76.21875 104.089844 75.78125 102.34375 C 72.082031 98.882812 67.21875 99.628906 62.453125 99.65625 C 61.601562 99.644531 60.75 99.628906 59.875 99.609375 C 58.648438 99.613281 58.648438 99.613281 57.394531 99.613281 C 56.648438 99.609375 55.90625 99.609375 55.140625 99.609375 C 53.066406 99.886719 53.066406 99.886719 51.324219 101.140625 C 49.347656 104.097656 49.527344 106.777344 49.523438 110.265625 C 49.511719 110.957031 49.5 111.644531 49.484375 112.355469 C 49.445312 114.550781 49.429688 116.75 49.414062 118.945312 C 49.390625 120.4375 49.367188 121.929688 49.34375 123.417969 C 49.285156 127.070312 49.25 130.722656 49.21875 134.375 C 43.546875 134.375 37.875 134.375 32.03125 134.375 C 24.925781 117.746094 21.640625 101.597656 25.78125 83.59375 C 25.914062 82.867188 26.050781 82.136719 26.1875 81.386719 C 28.269531 71.320312 34.105469 58.863281 41.40625 51.5625 C 42.859375 51.148438 44.332031 50.800781 45.808594 50.496094 C 46.695312 50.300781 47.582031 50.109375 48.496094 49.910156 C 50.363281 49.519531 52.226562 49.128906 54.09375 48.738281 C 62.390625 47.042969 62.390625 47.042969 68.703125 41.75 C 69.871094 37.96875 69.71875 34.394531 69.53125 30.46875 C 75.058594 27.65625 80.648438 26.195312 86.71875 25 C 87.433594 24.855469 88.148438 24.707031 88.886719 24.558594 C 108.367188 21.941406 128.359375 26.839844 144.382812 38.234375 Z M 144.382812 38.234375 "/>
<path style=" stroke:none;fill-rule:nonzero;fill:rgb(56.470591%,72.156864%,89.019608%);fill-opacity:1;" d="M 123.4375 8.59375 C 124.257812 8.820312 124.257812 8.820312 125.09375 9.050781 C 135.277344 11.933594 145.242188 16.113281 153.746094 22.507812 C 156.8125 24.605469 157.460938 24.027344 160.9375 23.4375 C 164.4375 25.550781 164.4375 25.550781 165.625 27.34375 C 165.722656 28.207031 165.820312 29.074219 165.921875 29.964844 C 166.507812 33.414062 167.570312 34.523438 170.019531 36.960938 C 189.132812 56.945312 194.4375 81.460938 193.851562 108.359375 C 193.644531 113.558594 192.804688 118.417969 191.40625 123.4375 C 191.179688 124.261719 191.179688 124.261719 190.949219 125.097656 C 188.117188 135.097656 183.898438 144.460938 178.125 153.125 C 175.78125 152.34375 175.78125 152.34375 173.976562 150.4375 C 171.738281 148.308594 170.140625 147.628906 167.1875 146.875 C 168.203125 144.121094 169.46875 141.609375 170.910156 139.054688 C 180.789062 121.4375 184.085938 99.246094 178.835938 79.554688 C 173.035156 60.148438 161.785156 43.078125 144.53125 32.03125 C 143.96875 31.640625 143.40625 31.25 142.824219 30.847656 C 126.121094 19.84375 103.648438 16.8125 84.191406 20.125 C 78.851562 21.238281 73.726562 22.90625 68.8125 25.285156 C 66.648438 25.945312 65.421875 25.699219 63.28125 25 C 61.585938 23.808594 61.585938 23.808594 60.007812 22.363281 C 59.484375 21.890625 58.957031 21.417969 58.414062 20.929688 C 57.03125 19.53125 57.03125 19.53125 55.46875 17.1875 C 75.875 5.984375 100.734375 2.15625 123.4375 8.59375 Z M 123.4375 8.59375 "/>
<path style=" stroke:none;fill-rule:nonzero;fill:rgb(40.000001%,62.352943%,85.882354%);fill-opacity:1;" d="M 21.875 46.875 C 22.390625 46.875 22.90625 46.875 23.4375 46.875 C 23.632812 47.488281 23.824219 48.101562 24.023438 48.730469 C 25.160156 51.117188 25.707031 51.445312 28.125 52.34375 C 28.835938 52.632812 29.542969 52.921875 30.273438 53.222656 C 31.144531 53.5625 31.144531 53.5625 32.03125 53.90625 C 30.972656 56.746094 29.671875 59.402344 28.265625 62.085938 C 25.167969 68.042969 22.683594 73.910156 21.09375 80.46875 C 20.886719 81.289062 20.886719 81.289062 20.675781 82.128906 C 19.394531 87.746094 19.261719 93.226562 19.289062 98.976562 C 19.292969 99.945312 19.296875 100.917969 19.300781 101.917969 C 19.605469 124.910156 29.34375 144.789062 45.683594 160.722656 C 48.742188 163.480469 51.988281 165.769531 55.46875 167.96875 C 56.171875 168.425781 56.878906 168.882812 57.605469 169.355469 C 70.09375 177.082031 83.917969 180.933594 98.585938 180.8125 C 99.574219 180.804688 100.5625 180.800781 101.582031 180.792969 C 112.636719 180.605469 122.28125 178.578125 132.34375 174.03125 C 134.375 173.4375 134.375 173.4375 136.03125 173.949219 C 137.617188 175.082031 138.996094 176.261719 140.382812 177.636719 C 140.851562 178.09375 141.320312 178.550781 141.804688 179.023438 C 143.046875 180.566406 143.429688 181.65625 143.75 183.59375 C 136.34375 186.976562 129.015625 190.183594 121.09375 192.1875 C 120.570312 192.324219 120.042969 192.464844 119.503906 192.605469 C 113.792969 193.949219 108.113281 194.015625 102.277344 193.996094 C 100.597656 193.996094 98.921875 194.011719 97.246094 194.03125 C 90.078125 194.066406 83.53125 193.226562 76.5625 191.40625 C 75.289062 191.078125 75.289062 191.078125 73.992188 190.746094 C 61.574219 187.410156 48.25 181.0625 39.0625 171.875 C 38.351562 172.070312 37.644531 172.261719 36.914062 172.460938 C 34.375 172.65625 34.375 172.65625 33.027344 171.835938 C 31.644531 170.570312 30.617188 169.601562 29.6875 167.96875 C 29.71875 167.238281 29.746094 166.503906 29.777344 165.75 C 29.660156 162.503906 28.203125 160.945312 26.171875 158.59375 C 12.335938 141.578125 6.140625 121.1875 6.054688 99.511719 C 6.039062 98.515625 6.023438 97.515625 6.007812 96.488281 C 5.976562 89.554688 6.863281 83.265625 8.59375 76.5625 C 8.8125 75.710938 9.03125 74.863281 9.257812 73.988281 C 11.746094 64.722656 16.042969 54.570312 21.875 46.875 Z M 21.875 46.875 "/>
<path style=" stroke:none;fill-rule:nonzero;fill:rgb(98.823529%,74.901962%,44.313726%);fill-opacity:1;" d="M 36.71875 140.625 C 78.484375 140.625 120.25 140.625 163.28125 140.625 C 161.109375 146.054688 161.109375 146.054688 159.375 147.65625 C 156.929688 148.472656 154.441406 148.890625 151.90625 149.316406 C 151.234375 149.4375 150.566406 149.558594 149.875 149.6875 C 144.28125 150.703125 144.28125 150.703125 141.664062 151.082031 C 140.992188 151.191406 140.320312 151.296875 139.628906 151.410156 C 139.03125 151.496094 138.433594 151.582031 137.816406 151.671875 C 135.738281 152.265625 135.738281 152.265625 133.976562 154.308594 C 130.707031 157.070312 127.378906 156.800781 123.261719 156.753906 C 122.46875 156.761719 121.675781 156.769531 120.859375 156.777344 C 118.242188 156.792969 115.628906 156.78125 113.011719 156.769531 C 111.191406 156.769531 109.371094 156.773438 107.550781 156.78125 C 103.734375 156.785156 99.921875 156.777344 96.105469 156.757812 C 91.21875 156.738281 86.335938 156.75 81.449219 156.773438 C 77.6875 156.789062 73.929688 156.78125 70.167969 156.773438 C 68.367188 156.769531 66.566406 156.773438 64.761719 156.78125 C 62.242188 156.792969 59.726562 156.777344 57.207031 156.753906 C 56.09375 156.765625 56.09375 156.765625 54.957031 156.78125 C 51.507812 156.722656 49.179688 156.582031 46.453125 154.351562 C 43.464844 151.230469 43.464844 151.230469 42.363281 149.796875 C 42.027344 149.355469 41.691406 148.917969 41.34375 148.464844 C 40.84375 147.800781 40.84375 147.800781 40.332031 147.117188 C 39.980469 146.664062 39.628906 146.210938 39.265625 145.746094 C 36.71875 142.394531 36.71875 142.394531 36.71875 140.625 Z M 36.71875 140.625 "/>
<path style=" stroke:none;fill-rule:nonzero;fill:rgb(97.647059%,36.078432%,48.627451%);fill-opacity:1;" d="M 136.773438 56.496094 C 139.609375 57.160156 140.160156 57.820312 141.699219 60.253906 C 142.148438 60.957031 142.597656 61.660156 143.0625 62.382812 C 143.546875 63.195312 144.03125 64.007812 144.53125 64.84375 C 144.8125 65.3125 145.09375 65.78125 145.382812 66.261719 C 150.78125 75.296875 150.78125 75.296875 150.78125 77.34375 C 148.460938 77.730469 148.460938 77.730469 146.09375 78.125 C 145.835938 96.6875 145.578125 115.25 145.3125 134.375 C 139.898438 134.375 134.484375 134.375 128.90625 134.375 C 128.648438 116.070312 128.390625 97.765625 128.125 78.90625 C 126.320312 78.390625 124.515625 77.875 122.65625 77.34375 C 124.183594 74.460938 125.761719 71.605469 127.34375 68.75 C 127.757812 67.980469 127.757812 67.980469 128.179688 67.191406 C 129.054688 65.570312 129.957031 63.960938 130.859375 62.351562 C 131.136719 61.828125 131.414062 61.304688 131.699219 60.761719 C 133.15625 58.226562 133.859375 57.144531 136.773438 56.496094 Z M 136.773438 56.496094 "/>
<path style=" stroke:none;fill-rule:nonzero;fill:rgb(16.078432%,30.19608%,57.254905%);fill-opacity:1;" d="M 37.71875 11.394531 C 41.335938 11.796875 42.367188 12.785156 44.921875 15.332031 C 45.726562 16.117188 46.53125 16.898438 47.335938 17.683594 C 47.761719 18.105469 48.183594 18.527344 48.625 18.960938 C 51.128906 21.421875 53.722656 23.785156 56.296875 26.171875 C 57.285156 27.089844 58.269531 28.011719 59.257812 28.929688 C 59.882812 29.515625 59.882812 29.515625 60.527344 30.117188 C 60.917969 30.492188 61.3125 30.863281 61.71875 31.25 C 62.148438 31.628906 62.574219 32.007812 63.015625 32.398438 C 64.0625 33.59375 64.0625 33.59375 64.5 36.28125 C 64.0625 39.0625 64.0625 39.0625 62.367188 40.617188 C 58.214844 43.15625 53.261719 43.988281 48.585938 45.117188 C 47.621094 45.363281 46.65625 45.609375 45.664062 45.863281 C 40.523438 47.132812 35.765625 48.289062 30.46875 47.65625 C 28.855469 46.328125 28.855469 46.328125 28.125 44.53125 C 27.539062 38.503906 29.417969 31.757812 30.421875 25.828125 C 30.550781 25.042969 30.683594 24.257812 30.820312 23.445312 C 30.953125 22.695312 31.085938 21.945312 31.222656 21.171875 C 31.398438 20.160156 31.398438 20.160156 31.578125 19.132812 C 33.246094 11.960938 33.246094 11.960938 37.71875 11.394531 Z M 37.71875 11.394531 "/>
<path style=" stroke:none;fill-rule:nonzero;fill:rgb(0%,21.568628%,53.725493%);fill-opacity:1;" d="M 170.703125 153.46875 C 173.617188 158.449219 170.257812 166.3125 168.878906 171.652344 C 168.738281 172.191406 168.597656 172.734375 168.449219 173.292969 C 168.015625 174.964844 167.589844 176.640625 167.164062 178.316406 C 166.890625 179.382812 166.613281 180.449219 166.335938 181.515625 C 166.085938 182.476562 165.839844 183.4375 165.582031 184.429688 C 164.84375 186.71875 164.84375 186.71875 163.28125 188.28125 C 158.179688 189.078125 158.179688 189.078125 155.574219 187.265625 C 154.078125 185.796875 152.71875 184.269531 151.367188 182.664062 C 150.351562 181.515625 149.335938 180.367188 148.320312 179.21875 C 147.820312 178.640625 147.320312 178.0625 146.800781 177.464844 C 145.410156 175.890625 143.976562 174.378906 142.5 172.882812 C 142.066406 172.4375 141.632812 171.996094 141.1875 171.535156 C 140.378906 170.710938 139.566406 169.894531 138.746094 169.082031 C 136.050781 166.265625 135.074219 164.070312 135.15625 160.15625 C 136.765625 157.617188 137.996094 157.113281 140.882812 156.296875 C 141.890625 156.136719 142.902344 155.976562 143.945312 155.8125 C 145.0625 155.625 146.179688 155.441406 147.300781 155.253906 C 147.871094 155.164062 148.445312 155.074219 149.035156 154.976562 C 150.761719 154.691406 152.476562 154.363281 154.191406 154.023438 C 155.015625 153.859375 155.015625 153.859375 155.855469 153.691406 C 156.390625 153.585938 156.921875 153.480469 157.46875 153.367188 C 167.167969 151.433594 167.167969 151.433594 170.703125 153.46875 Z M 170.703125 153.46875 "/>
<path style=" stroke:none;fill-rule:nonzero;fill:rgb(15.686275%,80.000001%,40.784314%);fill-opacity:1;" d="M 92.1875 85.15625 C 97.34375 85.15625 102.5 85.15625 107.8125 85.15625 C 107.8125 101.398438 107.8125 117.640625 107.8125 134.375 C 102.65625 134.375 97.5 134.375 92.1875 134.375 C 92.1875 118.132812 92.1875 101.890625 92.1875 85.15625 Z M 92.1875 85.15625 "/>
<path style=" stroke:none;fill-rule:nonzero;fill:rgb(98.431373%,92.941177%,85.490197%);fill-opacity:1;" d="M 57.8125 162.5 C 81.53125 162.5 105.25 162.5 129.6875 162.5 C 130.460938 165.59375 130.460938 165.59375 131.25 168.75 C 115.761719 177.082031 96.484375 178.308594 79.6875 173.4375 C 71.898438 171.019531 64.566406 167.921875 57.8125 163.28125 C 57.8125 163.023438 57.8125 162.765625 57.8125 162.5 Z M 57.8125 162.5 "/>
<path style=" stroke:none;fill-rule:nonzero;fill:rgb(20%,53.333336%,83.137256%);fill-opacity:1;" d="M 54.6875 105.46875 C 60.101562 105.46875 65.515625 105.46875 71.09375 105.46875 C 71.09375 115.007812 71.09375 124.546875 71.09375 134.375 C 65.679688 134.375 60.265625 134.375 54.6875 134.375 C 54.6875 124.835938 54.6875 115.296875 54.6875 105.46875 Z M 54.6875 105.46875 "/>
</g>
</svg>
