<?xml version="1.0" encoding="UTF-8"?>
<svg xmlns="http://www.w3.org/2000/svg" xmlns:xlink="http://www.w3.org/1999/xlink" width="200px" height="200px" viewBox="0 0 200 200" version="1.1">
<g id="surface1">
<path style=" stroke:none;fill-rule:nonzero;fill:rgb(1.960784%,1.176471%,1.176471%);fill-opacity:1;" d="M 126.28125 11.886719 C 137.003906 20.480469 144.964844 32.320312 146.875 46.09375 C 147.445312 54.191406 147.570312 62.25 144.96875 70.019531 C 144.269531 72.980469 144.917969 75.078125 146.394531 77.710938 C 146.84375 78.378906 147.292969 79.046875 147.753906 79.734375 C 150.769531 84.324219 153.523438 89.03125 156.25 93.800781 C 157.019531 95.140625 157.789062 96.480469 158.558594 97.820312 C 159.351562 99.199219 160.144531 100.578125 160.933594 101.960938 C 163.402344 106.257812 165.882812 110.550781 168.359375 114.84375 C 169.332031 116.53125 170.304688 118.21875 171.28125 119.90625 C 173.761719 124.210938 176.25 128.515625 178.734375 132.820312 C 180.199219 135.359375 181.664062 137.898438 183.125 140.441406 C 184.964844 143.632812 186.8125 146.8125 188.675781 149.988281 C 189.519531 151.441406 190.367188 152.894531 191.210938 154.347656 C 191.59375 154.992188 191.976562 155.636719 192.371094 156.300781 C 196.722656 163.8125 199.082031 170.859375 197.171875 179.554688 C 195.214844 185.78125 191.832031 190.742188 186.25 194.246094 C 181.820312 196.53125 178.15625 197.75 173.160156 197.765625 C 172.3125 197.769531 171.460938 197.773438 170.585938 197.78125 C 169.195312 197.78125 169.195312 197.78125 167.777344 197.78125 C 166.308594 197.789062 166.308594 197.789062 164.808594 197.792969 C 162.121094 197.804688 159.4375 197.808594 156.75 197.8125 C 155.070312 197.816406 153.390625 197.816406 151.707031 197.820312 C 146.445312 197.832031 141.179688 197.839844 135.917969 197.84375 C 129.851562 197.847656 123.789062 197.859375 117.722656 197.882812 C 113.027344 197.898438 108.335938 197.90625 103.640625 197.910156 C 100.839844 197.910156 98.039062 197.914062 95.238281 197.929688 C 92.109375 197.941406 88.980469 197.941406 85.851562 197.933594 C 84.933594 197.941406 84.015625 197.949219 83.066406 197.957031 C 74.847656 197.914062 68.023438 196.101562 61.71875 190.625 C 56.457031 184.351562 54.730469 177.921875 55.042969 169.777344 C 55.582031 163.789062 58.738281 158.972656 61.71875 153.90625 C 62.589844 152.378906 63.460938 150.847656 64.332031 149.316406 C 66.8125 144.96875 69.328125 140.640625 71.851562 136.316406 C 74.511719 131.757812 77.148438 127.179688 79.785156 122.609375 C 80.265625 121.777344 80.746094 120.945312 81.242188 120.089844 C 83.890625 115.5 86.507812 110.894531 89.0625 106.25 C 88.269531 106.078125 87.476562 105.90625 86.65625 105.730469 C 80.390625 104.3125 74.863281 102.609375 69.179688 99.503906 C 67.253906 98.472656 65.324219 97.648438 63.28125 96.875 C 57.675781 101.417969 57.675781 101.417969 54.136719 107.386719 C 54.113281 108.539062 54.105469 109.695312 54.109375 110.851562 C 53.683594 114.285156 50.808594 116.441406 48.4375 118.75 C 47.507812 119.707031 47.507812 119.707031 46.558594 120.683594 C 43.199219 124.117188 39.757812 127.367188 36.097656 130.472656 C 34.691406 131.746094 33.363281 133.039062 32.039062 134.394531 C 31.421875 135.03125 31.421875 135.03125 30.789062 135.675781 C 29.972656 136.515625 29.164062 137.363281 28.359375 138.214844 C 25.441406 141.222656 23.136719 142.921875 18.898438 143.019531 C 15.195312 141.785156 12.917969 139.40625 10.15625 136.71875 C 9.296875 135.90625 9.296875 135.90625 8.421875 135.078125 C 2.683594 129.527344 2.683594 129.527344 2.097656 125.777344 C 2.363281 119.554688 6.246094 116.453125 10.597656 112.402344 C 11.628906 111.402344 11.628906 111.402344 12.683594 110.378906 C 16.25 106.945312 19.910156 103.640625 23.65625 100.40625 C 25.453125 98.816406 27.136719 97.128906 28.808594 95.410156 C 31.859375 92.273438 31.859375 92.273438 33.59375 91.40625 C 34.59375 91.582031 35.59375 91.761719 36.621094 91.945312 C 39.585938 92.035156 41.03125 91.242188 43.171875 89.320312 C 45.558594 86.988281 47.796875 84.535156 50 82.03125 C 48.636719 77.824219 47.039062 73.734375 45.40625 69.625 C 41.4375 58.574219 42.554688 43.574219 47.394531 33.050781 C 50.507812 26.644531 54.246094 21.398438 59.375 16.40625 C 59.835938 15.921875 60.296875 15.433594 60.769531 14.933594 C 77.710938 -1.667969 107.632812 -1.929688 126.28125 11.886719 Z M 126.28125 11.886719 "/>
<path style=" stroke:none;fill-rule:nonzero;fill:rgb(99.215686%,87.450981%,45.882353%);fill-opacity:1;" d="M 132.03125 89.84375 C 132.546875 89.84375 133.0625 89.84375 133.59375 89.84375 C 133.867188 90.335938 134.140625 90.832031 134.425781 91.339844 C 140.398438 102.082031 146.46875 112.761719 152.6875 123.367188 C 157.050781 130.820312 161.351562 138.308594 165.660156 145.789062 C 167.273438 148.589844 168.890625 151.386719 170.503906 154.179688 C 171.316406 155.585938 172.128906 156.992188 172.941406 158.402344 C 173.714844 159.742188 174.492188 161.082031 175.265625 162.421875 C 175.734375 163.230469 176.199219 164.035156 176.679688 164.867188 C 177.296875 165.9375 177.296875 165.9375 177.929688 167.03125 C 179.714844 170.167969 180.0625 172.105469 179.6875 175.78125 C 178.308594 177.882812 178.308594 177.882812 175.78125 179.6875 C 172.621094 180.28125 169.496094 180.230469 166.292969 180.207031 C 165.328125 180.214844 164.367188 180.222656 163.375 180.230469 C 160.742188 180.246094 158.113281 180.246094 155.480469 180.238281 C 153.277344 180.230469 151.078125 180.238281 148.878906 180.246094 C 143.691406 180.261719 138.5 180.257812 133.308594 180.238281 C 127.960938 180.222656 122.609375 180.234375 117.257812 180.265625 C 112.660156 180.289062 108.0625 180.296875 103.464844 180.289062 C 100.71875 180.28125 97.976562 180.285156 95.230469 180.300781 C 92.171875 180.320312 89.113281 180.304688 86.050781 180.28125 C 84.691406 180.296875 84.691406 180.296875 83.300781 180.3125 C 77.335938 180.226562 77.335938 180.226562 75.125 178.683594 C 73.46875 176.792969 72.691406 175.179688 72.214844 172.71875 C 72.789062 169.597656 74.15625 167.285156 75.828125 164.648438 C 76.554688 163.464844 77.277344 162.277344 77.996094 161.09375 C 78.394531 160.445312 78.789062 159.796875 79.199219 159.132812 C 81.558594 155.230469 83.8125 151.269531 86.085938 147.3125 C 87.089844 145.566406 88.097656 143.820312 89.105469 142.070312 C 90.132812 140.289062 91.160156 138.503906 92.1875 136.71875 C 93.214844 134.933594 94.242188 133.148438 95.269531 131.367188 C 95.769531 130.496094 96.273438 129.625 96.789062 128.726562 C 97.785156 127.003906 98.78125 125.28125 99.785156 123.5625 C 101.929688 119.878906 104.039062 116.203125 105.964844 112.398438 C 109.730469 105.125 113.058594 101.535156 120.585938 98.210938 C 124.9375 96.289062 128.679688 93.195312 132.03125 89.84375 Z M 132.03125 89.84375 "/>
<path style=" stroke:none;fill-rule:nonzero;fill:rgb(91.764706%,92.54902%,93.725491%);fill-opacity:1;" d="M 115.625 26.5625 C 120.179688 30.28125 123.929688 34.574219 126.5625 39.84375 C 126.8125 40.324219 127.058594 40.804688 127.316406 41.300781 C 130.515625 48.882812 129.988281 58.910156 127.246094 66.503906 C 123.253906 75.40625 116.890625 82.1875 107.8125 85.9375 C 107.292969 86.171875 106.773438 86.40625 106.242188 86.644531 C 98.566406 89.710938 90.230469 89.027344 82.617188 86.140625 C 79.253906 84.597656 76.332031 82.769531 73.4375 80.46875 C 72.957031 80.09375 72.476562 79.722656 71.980469 79.335938 C 67.164062 75.09375 62.203125 66.695312 61.566406 60.167969 C 61.164062 48.835938 62.066406 40.230469 69.632812 31.21875 C 82.21875 18.03125 100.59375 17.175781 115.625 26.5625 Z M 115.625 26.5625 "/>
<path style=" stroke:none;fill-rule:nonzero;fill:rgb(94.901961%,37.254903%,41.176471%);fill-opacity:1;" d="M 139.0625 80.46875 C 139.578125 80.46875 140.09375 80.46875 140.625 80.46875 C 141.621094 81.867188 141.621094 81.867188 142.757812 83.855469 C 143.1875 84.597656 143.613281 85.339844 144.054688 86.101562 C 144.519531 86.917969 144.980469 87.734375 145.460938 88.574219 C 145.945312 89.417969 146.429688 90.261719 146.929688 91.128906 C 147.957031 92.917969 148.984375 94.710938 150.011719 96.503906 C 151.96875 99.933594 153.949219 103.351562 155.925781 106.769531 C 157.886719 110.167969 159.84375 113.566406 161.804688 116.96875 C 163.761719 120.363281 165.71875 123.757812 167.679688 127.15625 C 168.648438 128.835938 169.617188 130.515625 170.589844 132.195312 C 172.855469 136.128906 175.125 140.0625 177.398438 143.992188 C 178.199219 145.378906 179 146.761719 179.800781 148.148438 C 180.800781 149.882812 181.800781 151.617188 182.804688 153.347656 C 183.703125 154.902344 184.597656 156.460938 185.488281 158.019531 C 186.28125 159.394531 187.085938 160.761719 187.902344 162.121094 C 190.957031 167.296875 191.527344 171.34375 190.625 177.34375 C 188.984375 182.472656 186.53125 186.121094 182.03125 189.0625 C 178.894531 190.285156 176.265625 190.824219 172.90625 190.839844 C 172.042969 190.847656 171.175781 190.855469 170.285156 190.863281 C 168.878906 190.863281 168.878906 190.863281 167.445312 190.863281 C 166.449219 190.871094 165.453125 190.878906 164.425781 190.882812 C 161.699219 190.902344 158.976562 190.90625 156.25 190.910156 C 154.546875 190.914062 152.839844 190.917969 151.136719 190.925781 C 145.183594 190.945312 139.226562 190.953125 133.273438 190.957031 C 127.734375 190.960938 122.195312 190.984375 116.65625 191.015625 C 111.890625 191.042969 107.125 191.054688 102.359375 191.054688 C 99.519531 191.058594 96.675781 191.0625 93.835938 191.085938 C 90.664062 191.109375 87.492188 191.101562 84.320312 191.09375 C 82.917969 191.109375 82.917969 191.109375 81.488281 191.128906 C 74.496094 191.066406 70.679688 189.429688 65.773438 184.523438 C 62.929688 180.378906 61.050781 175.980469 61.25 170.875 C 63.128906 162.332031 69.074219 154.199219 73.523438 146.769531 C 75.71875 143.089844 77.859375 139.378906 79.992188 135.664062 C 81.492188 133.058594 83.003906 130.457031 84.511719 127.851562 C 86.488281 124.433594 88.417969 120.996094 90.316406 117.53125 C 90.765625 116.734375 91.210938 115.933594 91.671875 115.109375 C 92.519531 113.597656 93.347656 112.078125 94.160156 110.546875 C 95.222656 108.671875 96.175781 107.035156 97.65625 105.46875 C 100.683594 105.011719 100.683594 105.011719 103.125 105.46875 C 102.011719 108.445312 100.640625 111.128906 99.058594 113.882812 C 98.558594 114.761719 98.054688 115.636719 97.535156 116.542969 C 96.992188 117.492188 96.445312 118.4375 95.898438 119.382812 C 95.332031 120.367188 94.769531 121.351562 94.203125 122.339844 C 90.210938 129.292969 86.167969 136.21875 82.117188 143.140625 C 71.660156 158.203125 71.660156 158.203125 67.1875 175 C 68.609375 179.199219 70.226562 182.121094 74.058594 184.445312 C 76.136719 185.300781 77.707031 185.355469 79.953125 185.359375 C 80.796875 185.367188 81.640625 185.371094 82.515625 185.375 C 83.898438 185.375 83.898438 185.375 85.3125 185.371094 C 86.289062 185.375 87.265625 185.378906 88.269531 185.382812 C 90.945312 185.390625 93.621094 185.394531 96.292969 185.390625 C 98.527344 185.390625 100.761719 185.394531 103 185.398438 C 108.269531 185.40625 113.542969 185.40625 118.816406 185.402344 C 124.253906 185.398438 129.6875 185.40625 135.125 185.425781 C 139.792969 185.4375 144.464844 185.441406 149.136719 185.441406 C 151.921875 185.4375 154.710938 185.441406 157.5 185.453125 C 160.609375 185.464844 163.71875 185.457031 166.828125 185.445312 C 167.75 185.453125 168.667969 185.460938 169.617188 185.464844 C 175.761719 185.429688 175.761719 185.429688 181.25 182.8125 C 184.777344 178.996094 185.46875 175.90625 185.402344 170.847656 C 184.984375 167.296875 183.371094 164.640625 181.542969 161.621094 C 181.160156 160.957031 180.773438 160.289062 180.378906 159.605469 C 179.121094 157.4375 177.84375 155.28125 176.5625 153.125 C 175.695312 151.636719 174.832031 150.148438 173.96875 148.65625 C 172.152344 145.523438 170.324219 142.394531 168.492188 139.269531 C 165.574219 134.296875 162.691406 129.308594 159.8125 124.316406 C 159.332031 123.480469 158.851562 122.648438 158.355469 121.789062 C 156.34375 118.296875 154.335938 114.804688 152.324219 111.316406 C 151.265625 109.472656 150.203125 107.632812 149.144531 105.792969 C 148.152344 104.070312 147.160156 102.347656 146.171875 100.625 C 145.71875 99.839844 145.265625 99.050781 144.796875 98.242188 C 144.363281 97.488281 143.933594 96.734375 143.488281 95.957031 C 142.613281 94.476562 141.710938 93.011719 140.78125 91.566406 C 140.125 90.546875 140.125 90.546875 139.457031 89.5 C 139.0625 88.90625 138.664062 88.3125 138.257812 87.699219 C 137.296875 85.46875 137.578125 84.316406 138.28125 82.03125 C 138.539062 81.515625 138.796875 81 139.0625 80.46875 Z M 139.0625 80.46875 "/>
<path style=" stroke:none;fill-rule:nonzero;fill:rgb(50.588238%,74.901962%,95.294118%);fill-opacity:1;" d="M 121.875 17.1875 C 131.417969 24.488281 137.917969 34.316406 140.332031 46.144531 C 141.667969 60.1875 138.484375 73.542969 129.539062 84.71875 C 120.371094 94.15625 108.558594 99.128906 95.507812 99.460938 C 83.289062 99.222656 72.335938 95.535156 63.378906 86.992188 C 53.980469 76.609375 49.675781 65.257812 49.839844 51.261719 C 50.550781 38.847656 56.578125 27.875 65.625 19.53125 C 81.941406 6.121094 104.351562 5.496094 121.875 17.1875 Z M 65.355469 26.453125 C 58.855469 34.855469 55.003906 42.726562 55.125 53.367188 C 55.132812 54.089844 55.140625 54.808594 55.144531 55.550781 C 55.398438 66.066406 59.519531 75.296875 66.609375 83.085938 C 74.960938 91.019531 85.546875 94.863281 96.929688 94.746094 C 105.832031 94.125 113.21875 91.277344 120.3125 85.9375 C 121.300781 85.203125 121.300781 85.203125 122.308594 84.453125 C 129.324219 78.433594 134.207031 69.308594 135.15625 60.15625 C 135.9375 46.886719 133.902344 37.277344 125.242188 26.804688 C 117.808594 18.789062 108.003906 14.601562 97.230469 13.875 C 85.386719 13.636719 73.597656 17.484375 65.355469 26.453125 Z M 65.355469 26.453125 "/>
<path style=" stroke:none;fill-rule:nonzero;fill:rgb(3.137255%,2.352941%,1.176471%);fill-opacity:1;" d="M 128.4375 104.347656 C 131.144531 104.800781 132.570312 105.765625 134.375 107.8125 C 136.3125 111.683594 135.230469 117.574219 135.15625 121.875 C 135.140625 122.804688 135.128906 123.738281 135.113281 124.699219 C 135.070312 127.3125 135.015625 129.925781 134.949219 132.539062 C 134.925781 133.597656 134.902344 134.652344 134.886719 135.710938 C 134.859375 137.222656 134.816406 138.734375 134.773438 140.242188 C 134.753906 141.125 134.734375 142.007812 134.710938 142.914062 C 134.1875 146.628906 132.429688 149.082031 129.6875 151.5625 C 130.445312 152.175781 131.203125 152.789062 131.984375 153.417969 C 133.46875 154.621094 134.292969 155.308594 135.15625 157.03125 C 135.46875 161.097656 135.132812 163.785156 132.8125 167.1875 C 130.132812 169.078125 128.628906 169.539062 125.34375 169.484375 C 121.851562 168.53125 119.800781 167.125 117.726562 164.160156 C 116.980469 161.863281 116.898438 160.21875 117.1875 157.8125 C 118.710938 155.128906 120.359375 152.847656 122.65625 150.78125 C 122.171875 150.410156 121.6875 150.039062 121.191406 149.65625 C 117.46875 145.167969 117.714844 138.671875 117.679688 133.070312 C 117.671875 132.378906 117.664062 131.683594 117.65625 130.972656 C 117.644531 129.523438 117.640625 128.074219 117.636719 126.625 C 117.625 124.410156 117.589844 122.195312 117.550781 119.980469 C 117.542969 118.566406 117.535156 117.148438 117.53125 115.734375 C 117.515625 115.078125 117.5 114.417969 117.484375 113.738281 C 117.511719 110.332031 117.652344 109 119.816406 106.226562 C 122.789062 104.003906 124.84375 104.1875 128.4375 104.347656 Z M 128.4375 104.347656 "/>
<path style=" stroke:none;fill-rule:nonzero;fill:rgb(92.54902%,71.372551%,50.588238%);fill-opacity:1;" d="M 35.9375 97.65625 C 39.007812 99.082031 41.214844 101.058594 43.601562 103.417969 C 44.003906 103.792969 44.40625 104.171875 44.824219 104.558594 C 45.960938 105.683594 45.960938 105.683594 47.65625 107.8125 C 47.421875 110.421875 46.441406 111.625 44.53125 113.339844 C 44.039062 113.789062 43.542969 114.242188 43.035156 114.707031 C 42.496094 115.1875 41.960938 115.667969 41.40625 116.164062 C 37.742188 119.492188 34.144531 122.847656 30.699219 126.40625 C 30.105469 127.019531 29.511719 127.632812 28.898438 128.261719 C 27.746094 129.460938 26.597656 130.664062 25.457031 131.878906 C 24.933594 132.417969 24.40625 132.960938 23.863281 133.519531 C 23.402344 134.007812 22.945312 134.492188 22.46875 134.992188 C 21.09375 135.9375 21.09375 135.9375 19.480469 135.800781 C 17.160156 134.8125 15.691406 133.21875 13.914062 131.445312 C 13.226562 130.773438 12.539062 130.101562 11.832031 129.40625 C 10.089844 127.261719 9.355469 126.195312 9.375 123.4375 C 10.445312 121.882812 10.445312 121.882812 12.0625 120.410156 C 12.832031 119.6875 12.832031 119.6875 13.621094 118.953125 C 14.734375 117.96875 15.851562 116.992188 16.980469 116.027344 C 21.285156 112.324219 25.304688 108.382812 29.296875 104.34375 C 30.261719 103.375 30.261719 103.375 31.242188 102.386719 C 32.808594 100.8125 34.375 99.234375 35.9375 97.65625 Z M 35.9375 97.65625 "/>
<path style=" stroke:none;fill-rule:nonzero;fill:rgb(92.941177%,36.470589%,40.392157%);fill-opacity:1;" d="M 124.21875 110.9375 C 125.765625 110.9375 127.3125 110.9375 128.90625 110.9375 C 128.648438 122.023438 128.390625 133.109375 128.125 144.53125 C 127.09375 144.53125 126.0625 144.53125 125 144.53125 C 124.222656 140.660156 124.117188 136.988281 124.140625 133.0625 C 124.144531 132.429688 124.144531 131.792969 124.144531 131.136719 C 124.148438 129.125 124.160156 127.109375 124.171875 125.097656 C 124.175781 123.726562 124.175781 122.355469 124.179688 120.984375 C 124.1875 117.636719 124.203125 114.285156 124.21875 110.9375 Z M 124.21875 110.9375 "/>
<path style=" stroke:none;fill-rule:nonzero;fill:rgb(60.000002%,55.686277%,60.000002%);fill-opacity:1;" d="M 54.6875 86.71875 C 56.234375 88.007812 57.78125 89.296875 59.375 90.625 C 56.402344 94.1875 53.320312 97.539062 50 100.78125 C 47.042969 99.597656 46.871094 99.207031 45.3125 96.09375 C 48.40625 93 51.5 89.90625 54.6875 86.71875 Z M 54.6875 86.71875 "/>
<path style=" stroke:none;fill-rule:nonzero;fill:rgb(88.235295%,34.509805%,38.431373%);fill-opacity:1;" d="M 125 157.8125 C 126.308594 158.035156 127.613281 158.296875 128.90625 158.59375 C 128.648438 159.882812 128.390625 161.171875 128.125 162.5 C 126.660156 162.988281 126.660156 162.988281 125 163.28125 C 124.484375 162.765625 123.96875 162.25 123.4375 161.71875 C 123.855469 158.957031 123.855469 158.957031 125 157.8125 Z M 125 157.8125 "/>
</g>
</svg>
