<svg xmlns="http://www.w3.org/2000/svg" version="1.1" width="500px" height="500px" style="shape-rendering:geometricPrecision; text-rendering:geometricPrecision; image-rendering:optimizeQuality; fill-rule:evenodd; clip-rule:evenodd" xmlns:xlink="http://www.w3.org/1999/xlink"><defs>
                <linearGradient id="grad-109" gradientTransform="rotate(358 0.5 0.5)">
                
                        <stop stop-color="#4a913e" offset="0"></stop>
                    ,
                        <stop stop-color="#6cab4c" offset="0.5"></stop>
                    
                </linearGradient>
          </defs>
<g><path style="opacity:1" fill="#256130" d="M 239.5,46.5 C 242.127,47.0916 244.794,47.4249 247.5,47.5C 264.162,50.0484 279.495,55.715 293.5,64.5C 286.597,62.7126 279.931,60.3793 273.5,57.5C 272.692,57.8076 272.025,58.3076 271.5,59C 273.888,60.8605 276.554,62.1939 279.5,63C 278.833,63.3333 278.167,63.6667 277.5,64C 279.832,68.7801 280.832,73.9467 280.5,79.5C 282.833,79.5 285.167,79.5 287.5,79.5C 288.081,84.9752 287.414,90.1418 285.5,95C 288.817,95.4983 292.15,95.665 295.5,95.5C 295.334,100.179 295.501,104.845 296,109.5C 298.135,111.278 300.635,111.945 303.5,111.5C 303.828,116.875 303.495,122.208 302.5,127.5C 301.186,128.313 300.019,129.313 299,130.5C 292.915,129.688 286.748,129.188 280.5,129C 277.833,128.333 277.833,127.667 280.5,127C 282.81,126.503 285.143,126.337 287.5,126.5C 287.5,125.5 287.5,124.5 287.5,123.5C 280.898,122.292 275.565,124.125 271.5,129C 271.905,129.945 272.572,130.612 273.5,131C 281.153,132.109 288.819,133.109 296.5,134C 295.833,134.667 295.167,135.333 294.5,136C 285.569,136.604 277.069,135.104 269,131.5C 266.708,131.781 264.542,132.448 262.5,133.5C 263.5,134.333 264.5,135.167 265.5,136C 275.074,136.394 284.407,138.061 293.5,141C 292.906,141.464 292.239,141.631 291.5,141.5C 280.142,139.371 268.642,138.038 257,137.5C 246.342,137.967 235.842,139.301 225.5,141.5C 225.389,140.883 225.056,140.383 224.5,140C 242.867,127.479 262.867,118.312 284.5,112.5C 283.872,110.742 282.872,109.242 281.5,108C 275.941,106.061 271.274,102.894 267.5,98.5C 266.543,95.8318 264.543,94.3318 261.5,94C 261.833,93.6667 262.167,93.3333 262.5,93C 259.827,91.9986 257.493,90.4986 255.5,88.5C 253.164,89.0234 250.83,88.5234 248.5,87C 246.802,83.312 244.135,82.1453 240.5,83.5C 236.276,83.2495 232.609,81.7495 229.5,79C 226.167,78.6667 222.833,78.3333 219.5,78C 220.167,77.6667 220.833,77.3333 221.5,77C 219.377,75.8063 217.043,75.1397 214.5,75C 214.833,74.6667 215.167,74.3333 215.5,74C 208.475,73.5878 201.475,72.9212 194.5,72C 198.744,71.5706 202.744,70.404 206.5,68.5C 206.023,67.5224 205.357,66.6891 204.5,66C 199.784,66.0429 195.451,64.8762 191.5,62.5C 190.914,62.7093 190.414,63.0426 190,63.5C 189.51,62.2068 189.343,60.8734 189.5,59.5C 186.565,58.8863 183.732,57.8863 181,56.5C 179.108,56.7769 177.775,57.7769 177,59.5C 176.51,58.2068 176.343,56.8734 176.5,55.5C 174.5,55.5 172.5,55.5 170.5,55.5C 170.688,57.1033 170.188,58.4366 169,59.5C 167.417,59.507 165.751,59.1737 164,58.5C 158.341,61.3192 152.341,63.3192 146,64.5C 145.5,64.1667 145,63.8333 144.5,63.5C 146.544,62.9348 148.21,61.9348 149.5,60.5C 152.846,59.1036 156.179,57.6036 159.5,56C 165.825,54.6844 172.158,53.3511 178.5,52C 180.286,51.8038 181.619,50.9705 182.5,49.5C 201.404,46.8982 220.404,45.8982 239.5,46.5 Z" data-index="0"></path></g>
<g><path style="opacity:0.259" fill="#a1b8a5" d="M 239.5,46.5 C 239.5,46.1667 239.5,45.8333 239.5,45.5C 242.428,45.5651 245.095,46.2318 247.5,47.5C 244.794,47.4249 242.127,47.0916 239.5,46.5 Z" data-index="1"></path></g>
<g><path style="opacity:1" fill="#6b975a" d="M 345.5,57.5 C 343.801,57.6602 342.134,57.4935 340.5,57C 335.726,53.6388 330.392,52.1388 324.5,52.5C 324.238,53.9778 324.571,55.3112 325.5,56.5C 329.038,58.8246 331.705,61.8246 333.5,65.5C 325.498,58.1699 317.165,51.1699 308.5,44.5C 309.167,44.1667 309.833,43.8333 310.5,43.5C 322.739,47.0177 334.406,51.6843 345.5,57.5 Z" data-index="2"></path></g>
<g><path style="opacity:1" fill="#46704d" d="M 239.5,45.5 C 239.5,45.8333 239.5,46.1667 239.5,46.5C 220.404,45.8982 201.404,46.8982 182.5,49.5C 181.619,50.9705 180.286,51.8038 178.5,52C 172.158,53.3511 165.825,54.6844 159.5,56C 156.179,57.6036 152.846,59.1036 149.5,60.5C 146.904,61.2653 144.237,61.5987 141.5,61.5C 172.401,46.2392 205.067,40.9059 239.5,45.5 Z" data-index="3"></path></g>
<g><path style="opacity:1" fill="#225b2f" d="M 267.5,98.5 C 232.918,78.619 195.585,71.4523 155.5,77C 145.784,79.2288 136.117,81.5621 126.5,84C 113.23,89.7895 100.73,96.9561 89,105.5C 87.5603,104.852 86.0603,104.519 84.5,104.5C 100.52,86.014 119.52,71.6807 141.5,61.5C 144.237,61.5987 146.904,61.2653 149.5,60.5C 148.21,61.9348 146.544,62.9348 144.5,63.5C 145,63.8333 145.5,64.1667 146,64.5C 152.341,63.3192 158.341,61.3192 164,58.5C 165.751,59.1737 167.417,59.507 169,59.5C 170.188,58.4366 170.688,57.1033 170.5,55.5C 172.5,55.5 174.5,55.5 176.5,55.5C 176.343,56.8734 176.51,58.2068 177,59.5C 177.775,57.7769 179.108,56.7769 181,56.5C 183.732,57.8863 186.565,58.8863 189.5,59.5C 189.343,60.8734 189.51,62.2068 190,63.5C 190.414,63.0426 190.914,62.7093 191.5,62.5C 195.451,64.8762 199.784,66.0429 204.5,66C 205.357,66.6891 206.023,67.5224 206.5,68.5C 202.744,70.404 198.744,71.5706 194.5,72C 201.475,72.9212 208.475,73.5878 215.5,74C 215.167,74.3333 214.833,74.6667 214.5,75C 217.043,75.1397 219.377,75.8063 221.5,77C 220.833,77.3333 220.167,77.6667 219.5,78C 222.833,78.3333 226.167,78.6667 229.5,79C 232.609,81.7495 236.276,83.2495 240.5,83.5C 244.135,82.1453 246.802,83.312 248.5,87C 250.83,88.5234 253.164,89.0234 255.5,88.5C 257.493,90.4986 259.827,91.9986 262.5,93C 262.167,93.3333 261.833,93.6667 261.5,94C 264.543,94.3318 266.543,95.8318 267.5,98.5 Z" data-index="4"></path></g>
<g><path style="opacity:1" fill="#54923e" d="M 345.5,57.5 C 345.5,58.8333 345.5,60.1667 345.5,61.5C 342.475,61.1231 339.475,60.9565 336.5,61C 336.167,61.3333 335.833,61.6667 335.5,62C 338.194,64.5525 337.527,65.7192 333.5,65.5C 331.705,61.8246 329.038,58.8246 325.5,56.5C 324.571,55.3112 324.238,53.9778 324.5,52.5C 330.392,52.1388 335.726,53.6388 340.5,57C 342.134,57.4935 343.801,57.6602 345.5,57.5 Z" data-index="5"></path></g>
<g><path style="opacity:1" fill="#679856" d="M 345.5,57.5 C 351.206,60.3468 356.539,63.6802 361.5,67.5C 357.517,65.8663 353.517,64.1996 349.5,62.5C 348.833,62.6667 348.167,62.8333 347.5,63C 348.711,63.8928 348.711,64.7261 347.5,65.5C 346.392,62.4968 344.725,61.9968 342.5,64C 341.101,65.0616 340.101,66.395 339.5,68C 342.171,72.3372 344.504,76.8372 346.5,81.5C 342.169,76.1755 337.836,70.8422 333.5,65.5C 337.527,65.7192 338.194,64.5525 335.5,62C 335.833,61.6667 336.167,61.3333 336.5,61C 339.475,60.9565 342.475,61.1231 345.5,61.5C 345.5,60.1667 345.5,58.8333 345.5,57.5 Z" data-index="6"></path></g>
<g><path style="opacity:1" fill="#286731" d="M 293.5,64.5 C 312.484,74.1898 328.151,87.8565 340.5,105.5C 340.119,106.931 339.119,107.764 337.5,108C 341.92,109.089 344.087,111.923 344,116.5C 347.056,118.961 349.889,121.627 352.5,124.5C 357.825,134.795 360.825,145.795 361.5,157.5C 361.5,161.167 361.5,164.833 361.5,168.5C 359.5,168.5 357.5,168.5 355.5,168.5C 346.48,163.323 337.146,158.657 327.5,154.5C 326.972,153.279 326.305,152.113 325.5,151C 323.167,150.667 320.833,150.333 318.5,150C 320.891,149.309 320.891,148.309 318.5,147C 314.68,146.765 311.013,145.932 307.5,144.5C 306.584,144.543 305.917,144.876 305.5,145.5C 300.561,144.786 295.895,143.453 291.5,141.5C 292.239,141.631 292.906,141.464 293.5,141C 284.407,138.061 275.074,136.394 265.5,136C 264.5,135.167 263.5,134.333 262.5,133.5C 264.542,132.448 266.708,131.781 269,131.5C 277.069,135.104 285.569,136.604 294.5,136C 295.167,135.333 295.833,134.667 296.5,134C 288.819,133.109 281.153,132.109 273.5,131C 272.572,130.612 271.905,129.945 271.5,129C 275.565,124.125 280.898,122.292 287.5,123.5C 287.5,124.5 287.5,125.5 287.5,126.5C 285.143,126.337 282.81,126.503 280.5,127C 277.833,127.667 277.833,128.333 280.5,129C 286.748,129.188 292.915,129.688 299,130.5C 300.019,129.313 301.186,128.313 302.5,127.5C 303.495,122.208 303.828,116.875 303.5,111.5C 300.635,111.945 298.135,111.278 296,109.5C 295.501,104.845 295.334,100.179 295.5,95.5C 292.15,95.665 288.817,95.4983 285.5,95C 287.414,90.1418 288.081,84.9752 287.5,79.5C 285.167,79.5 282.833,79.5 280.5,79.5C 280.832,73.9467 279.832,68.7801 277.5,64C 278.167,63.6667 278.833,63.3333 279.5,63C 276.554,62.1939 273.888,60.8605 271.5,59C 272.025,58.3076 272.692,57.8076 273.5,57.5C 279.931,60.3793 286.597,62.7126 293.5,64.5 Z" data-index="7"></path></g>
<g><path style="opacity: 1;" fill="#5c9944" d="M 361.5,67.5 C 362.024,70.1878 363.691,71.6878 366.5,72C 369.288,74.453 371.955,76.953 374.5,79.5C 372.09,78.9371 369.757,78.4371 367.5,78C 370.122,81.9572 373.122,85.6239 376.5,89C 378.979,89.8939 381.312,90.2272 383.5,90C 382.892,90.8699 382.059,91.3699 381,91.5C 379.578,90.7948 378.245,90.4615 377,90.5C 375.726,95.9639 372.559,97.6305 367.5,95.5C 366.571,96.6888 366.238,98.0222 366.5,99.5C 365.5,99.5 364.5,99.5 363.5,99.5C 363.942,103.847 364.775,104.18 366,100.5C 366.638,101.609 367.138,102.775 367.5,104C 366.678,106.434 366.344,108.934 366.5,111.5C 365.833,111.5 365.167,111.5 364.5,111.5C 362.613,109.211 361.279,106.545 360.5,103.5C 359.385,99.973 358.052,96.473 356.5,93C 355.281,90.9449 353.614,89.4449 351.5,88.5C 349.478,86.4687 347.811,84.1354 346.5,81.5C 344.504,76.8372 342.171,72.3372 339.5,68C 340.101,66.395 341.101,65.0616 342.5,64C 344.725,61.9968 346.392,62.4968 347.5,65.5C 348.711,64.7261 348.711,63.8928 347.5,63C 348.167,62.8333 348.833,62.6667 349.5,62.5C 353.517,64.1996 357.517,65.8663 361.5,67.5 Z" data-index="8"></path></g>
<g><path style="opacity:1" fill="#19422c" d="M 208.5,126.5 C 211.411,121.254 215.078,116.587 219.5,112.5C 220.922,112.25 221.922,111.417 222.5,110C 221.906,109.536 221.239,109.369 220.5,109.5C 192.934,95.2133 163.6,90.5466 132.5,95.5C 131.081,94.5489 129.415,94.2155 127.5,94.5C 127.238,93.0222 127.571,91.6888 128.5,90.5C 133.275,87.8055 138.275,87.1389 143.5,88.5C 144.506,88.0623 144.506,87.3957 143.5,86.5C 145.266,83.3732 147.266,83.0399 149.5,85.5C 156.126,84.3075 162.959,84.3075 170,85.5C 173.594,86.283 175.427,84.9496 175.5,81.5C 169.824,81.6661 164.157,81.4994 158.5,81C 159.167,80.3333 159.833,79.6667 160.5,79C 171.144,77.9212 181.811,77.0878 192.5,76.5C 202.459,79.6535 212.459,80.9868 222.5,80.5C 222.67,81.8221 222.337,82.9887 221.5,84C 222.449,84.6172 223.282,84.4506 224,83.5C 225.187,86.378 227.353,87.0447 230.5,85.5C 232.923,85.5943 235.256,86.0943 237.5,87C 230.54,87.2232 223.54,87.0565 216.5,86.5C 215.614,87.325 215.281,88.325 215.5,89.5C 212.833,89.5 210.167,89.5 207.5,89.5C 207.5,90.8333 207.5,92.1667 207.5,93.5C 210.167,93.5 212.833,93.5 215.5,93.5C 215.67,94.8221 215.337,95.9887 214.5,97C 218.167,99.3333 221.833,101.667 225.5,104C 224.672,104.915 223.672,105.581 222.5,106C 223.299,109.777 223.132,113.61 222,117.5C 219.909,116.5 218.243,117.167 217,119.5C 216.506,121.134 216.34,122.801 216.5,124.5C 213.737,124.744 211.571,126.077 210,128.5C 209.722,127.584 209.222,126.918 208.5,126.5 Z" data-index="9"></path></g>
<g><path style="opacity:1" fill="#79a363" d="M 361.5,67.5 C 371.701,73.6963 380.701,81.363 388.5,90.5C 387.883,90.6107 387.383,90.944 387,91.5C 382.938,87.2688 378.771,83.2688 374.5,79.5C 371.955,76.953 369.288,74.453 366.5,72C 363.691,71.6878 362.024,70.1878 361.5,67.5 Z" data-index="10"></path></g>
<g><path style="opacity: 1;" fill="#60a146" d="M 374.5,79.5 C 378.771,83.2688 382.938,87.2688 387,91.5C 387.383,90.944 387.883,90.6107 388.5,90.5C 391.284,94.9483 393.618,99.615 395.5,104.5C 396.552,104.351 397.552,104.517 398.5,105C 400.891,108.297 403.391,111.463 406,114.5C 406.671,115.252 407.504,115.586 408.5,115.5C 409.6,116.605 410.267,117.938 410.5,119.5C 410.952,122.203 411.619,124.87 412.5,127.5C 415.438,130.607 417.271,134.274 418,138.5C 420.797,143.114 423.297,147.781 425.5,152.5C 426.338,152.842 426.672,153.508 426.5,154.5C 427.71,161.463 428.21,168.463 428,175.5C 424.765,178.494 425.599,179.828 430.5,179.5C 430.5,185.833 430.5,192.167 430.5,198.5C 427.83,197.12 425.33,197.453 423,199.5C 418.533,195.574 413.366,194.574 407.5,196.5C 407.657,197.873 407.49,199.207 407,200.5C 405.853,199.542 404.853,199.875 404,201.5C 401.334,215.843 397.501,229.843 392.5,243.5C 391.27,245.297 390.604,247.297 390.5,249.5C 375.198,232.82 358.531,217.487 340.5,203.5C 339.292,202.766 337.959,202.433 336.5,202.5C 333.271,199.057 330.271,195.39 327.5,191.5C 327.649,190.448 327.483,189.448 327,188.5C 323.719,185.43 320.553,182.264 317.5,179C 315.593,177.878 313.593,177.045 311.5,176.5C 310.5,176.167 309.833,175.5 309.5,174.5C 309.281,173.325 309.614,172.325 310.5,171.5C 313.084,172.393 315.751,172.726 318.5,172.5C 327.357,174.564 336.024,177.23 344.5,180.5C 345.854,183.328 348.187,184.828 351.5,185C 352.83,186.633 353.496,188.133 353.5,189.5C 355.768,188.456 358.101,188.289 360.5,189C 364.982,191.022 369.315,193.189 373.5,195.5C 374.713,195.253 375.38,194.586 375.5,193.5C 377.067,180.825 377.4,168.159 376.5,155.5C 376.861,148.02 376.028,140.686 374,133.5C 371.5,126.164 369,118.831 366.5,111.5C 366.344,108.934 366.678,106.434 367.5,104C 367.138,102.775 366.638,101.609 366,100.5C 364.775,104.18 363.942,103.847 363.5,99.5C 364.5,99.5 365.5,99.5 366.5,99.5C 366.238,98.0222 366.571,96.6888 367.5,95.5C 372.559,97.6305 375.726,95.9639 377,90.5C 378.245,90.4615 379.578,90.7948 381,91.5C 382.059,91.3699 382.892,90.8699 383.5,90C 381.312,90.2272 378.979,89.8939 376.5,89C 373.122,85.6239 370.122,81.9572 367.5,78C 369.757,78.4371 372.09,78.9371 374.5,79.5 Z" data-index="11"></path></g>
<g><path style="opacity:1" fill="#134227" d="M 267.5,98.5 C 271.274,102.894 275.941,106.061 281.5,108C 282.872,109.242 283.872,110.742 284.5,112.5C 262.867,118.312 242.867,127.479 224.5,140C 225.056,140.383 225.389,140.883 225.5,141.5C 221.322,143.417 216.988,145.083 212.5,146.5C 208.854,146.577 205.521,147.577 202.5,149.5C 201.614,148.675 201.281,147.675 201.5,146.5C 197.867,146.557 197.7,145.557 201,143.5C 202.456,137.291 204.956,131.624 208.5,126.5C 209.222,126.918 209.722,127.584 210,128.5C 211.571,126.077 213.737,124.744 216.5,124.5C 216.34,122.801 216.506,121.134 217,119.5C 218.243,117.167 219.909,116.5 222,117.5C 223.132,113.61 223.299,109.777 222.5,106C 223.672,105.581 224.672,104.915 225.5,104C 221.833,101.667 218.167,99.3333 214.5,97C 215.337,95.9887 215.67,94.8221 215.5,93.5C 212.833,93.5 210.167,93.5 207.5,93.5C 207.5,92.1667 207.5,90.8333 207.5,89.5C 210.167,89.5 212.833,89.5 215.5,89.5C 215.281,88.325 215.614,87.325 216.5,86.5C 223.54,87.0565 230.54,87.2232 237.5,87C 235.256,86.0943 232.923,85.5943 230.5,85.5C 227.353,87.0447 225.187,86.378 224,83.5C 223.282,84.4506 222.449,84.6172 221.5,84C 222.337,82.9887 222.67,81.8221 222.5,80.5C 212.459,80.9868 202.459,79.6535 192.5,76.5C 181.811,77.0878 171.144,77.9212 160.5,79C 159.833,79.6667 159.167,80.3333 158.5,81C 164.157,81.4994 169.824,81.6661 175.5,81.5C 175.427,84.9496 173.594,86.283 170,85.5C 162.959,84.3075 156.126,84.3075 149.5,85.5C 147.266,83.0399 145.266,83.3732 143.5,86.5C 144.506,87.3957 144.506,88.0623 143.5,88.5C 138.275,87.1389 133.275,87.8055 128.5,90.5C 127.571,91.6888 127.238,93.0222 127.5,94.5C 129.415,94.2155 131.081,94.5489 132.5,95.5C 128.25,94.9188 124.584,95.9188 121.5,98.5C 120.833,98.5 120.167,98.5 119.5,98.5C 115.841,97.3166 112.175,97.3166 108.5,98.5C 109.376,99.2508 110.376,99.7508 111.5,100C 106.574,101.306 101.907,102.973 97.5,105C 95.3819,106.549 93.0485,107.716 90.5,108.5C 91.6405,109.425 91.6405,110.259 90.5,111C 87.28,112.525 83.9467,113.192 80.5,113C 81.6667,111.833 82.8333,110.667 84,109.5C 84.7401,108.251 84.5735,107.251 83.5,106.5C 83.8333,105.833 84.1667,105.167 84.5,104.5C 86.0603,104.519 87.5603,104.852 89,105.5C 100.73,96.9561 113.23,89.7895 126.5,84C 136.117,81.5621 145.784,79.2288 155.5,77C 195.585,71.4523 232.918,78.619 267.5,98.5 Z" data-index="12"></path></g>
<g><path style="opacity:1" fill="#88ac79" d="M 351.5,88.5 C 353.614,89.4449 355.281,90.9449 356.5,93C 358.052,96.473 359.385,99.973 360.5,103.5C 357.259,98.6923 354.259,93.6923 351.5,88.5 Z" data-index="13"></path></g>
<g><path style="opacity:0.902" fill="#596e63" d="M 132.5,95.5 C 128.989,96.6641 125.323,97.6641 121.5,98.5C 124.584,95.9188 128.25,94.9188 132.5,95.5 Z" data-index="14"></path></g>
<g><path style="opacity:1" fill="#7ca661" d="M 388.5,90.5 C 396.276,97.9431 402.943,106.276 408.5,115.5C 407.504,115.586 406.671,115.252 406,114.5C 403.391,111.463 400.891,108.297 398.5,105C 397.552,104.517 396.552,104.351 395.5,104.5C 393.618,99.615 391.284,94.9483 388.5,90.5 Z" data-index="15"></path></g>
<g><path style="opacity:1" fill="#2f4d3b" d="M 119.5,98.5 C 105.729,104.338 92.3958,111.338 79.5,119.5C 77.8561,119.286 76.3561,119.62 75,120.5C 74.4209,119.072 74.5876,117.738 75.5,116.5C 77.0332,112.296 79.6998,108.963 83.5,106.5C 84.5735,107.251 84.7401,108.251 84,109.5C 82.8333,110.667 81.6667,111.833 80.5,113C 83.9467,113.192 87.28,112.525 90.5,111C 91.6405,110.259 91.6405,109.425 90.5,108.5C 93.0485,107.716 95.3819,106.549 97.5,105C 101.907,102.973 106.574,101.306 111.5,100C 110.376,99.7508 109.376,99.2508 108.5,98.5C 112.175,97.3166 115.841,97.3166 119.5,98.5 Z" data-index="16"></path></g>
<g><path style="opacity:0.663" fill="#95aa9e" d="M 220.5,109.5 C 221.239,109.369 221.906,109.536 222.5,110C 221.922,111.417 220.922,112.25 219.5,112.5C 220.11,111.609 220.443,110.609 220.5,109.5 Z" data-index="17"></path></g>
<g><path style="opacity:1" fill="#286831" d="M 185.5,113.5 C 187.78,115.223 190.447,115.889 193.5,115.5C 188.501,119.545 183.834,124.545 179.5,130.5C 178.691,132.071 178.357,133.738 178.5,135.5C 177.5,137.167 176.167,138.5 174.5,139.5C 170.173,141.5 167.173,144.834 165.5,149.5C 164.675,150.386 163.675,150.719 162.5,150.5C 162.5,152.167 162.5,153.833 162.5,155.5C 158.516,155.472 157.516,157.139 159.5,160.5C 157.271,161.055 155.605,162.389 154.5,164.5C 151.709,168.752 150.042,173.419 149.5,178.5C 149.5,178.833 149.5,179.167 149.5,179.5C 145.728,182.487 144.061,186.487 144.5,191.5C 139.643,205.333 137.309,219.666 137.5,234.5C 135.589,234.426 134.422,233.426 134,231.5C 133.483,226.102 132.649,220.769 131.5,215.5C 130.834,207.505 130.168,199.505 129.5,191.5C 130.5,180.829 131.5,170.162 132.5,159.5C 131.127,159.343 129.793,159.51 128.5,160C 121.718,166.11 114.885,172.276 108,178.5C 101.657,185.874 95.3234,193.207 89,200.5C 84.7953,205.575 81.6286,211.242 79.5,217.5C 77.6532,219.182 76.1532,221.182 75,223.5C 72.0612,230.158 69.2278,236.825 66.5,243.5C 64.2342,247.807 62.0675,252.14 60,256.5C 59.5604,258.866 59.0604,261.199 58.5,263.5C 57.6862,265.631 57.1862,267.964 57,270.5C 56.6667,270.167 56.3333,269.833 56,269.5C 55.6924,270.308 55.1924,270.975 54.5,271.5C 53.1393,269.016 53.3059,266.683 55,264.5C 56.0076,269.541 56.5076,269.208 56.5,263.5C 55.5,263.5 54.5,263.5 53.5,263.5C 53.6641,260.813 53.4974,258.146 53,255.5C 52.6667,255.833 52.3333,256.167 52,256.5C 51.7407,261.728 50.074,266.394 47,270.5C 46.6667,270.167 46.3333,269.833 46,269.5C 45.6667,270.5 45.3333,271.5 45,272.5C 44.07,267.201 43.4034,261.867 43,256.5C 42.2057,259.471 41.539,262.471 41,265.5C 41.1836,250.061 41.6836,234.728 42.5,219.5C 43.2323,218.192 44.0656,216.858 45,215.5C 45.3333,216.167 45.6667,216.833 46,217.5C 46.2902,212.368 47.1236,207.368 48.5,202.5C 49.675,202.719 50.675,202.386 51.5,201.5C 52.0938,198.17 52.7604,194.836 53.5,191.5C 55.5348,187.457 58.2014,183.79 61.5,180.5C 60.0977,179.158 60.4311,178.324 62.5,178C 62.1667,177.667 61.8333,177.333 61.5,177C 63.229,175.211 63.8957,173.044 63.5,170.5C 68.3995,161.369 74.7328,153.369 82.5,146.5C 83.4959,146.414 84.3292,146.748 85,147.5C 86.3204,145.021 87.8204,142.687 89.5,140.5C 96.0604,137.413 102.06,133.413 107.5,128.5C 113.027,125.905 118.694,123.572 124.5,121.5C 125.386,120.675 125.719,119.675 125.5,118.5C 144.881,110.057 164.881,108.391 185.5,113.5 Z" data-index="18"></path></g>
<g><path style="opacity:0.553" fill="#87ae8b" d="M 185.5,113.5 C 188.373,113.802 191.039,114.469 193.5,115.5C 190.447,115.889 187.78,115.223 185.5,113.5 Z" data-index="19"></path></g>
<g><path style="opacity:1" fill="#49764c" d="M 340.5,105.5 C 345.301,111.306 349.301,117.639 352.5,124.5C 349.889,121.627 347.056,118.961 344,116.5C 344.087,111.923 341.92,109.089 337.5,108C 339.119,107.764 340.119,106.931 340.5,105.5 Z" data-index="20"></path></g>
<g><path style="opacity:0.988" fill="#506357" d="M 75.5,116.5 C 74.5876,117.738 74.4209,119.072 75,120.5C 76.3561,119.62 77.8561,119.286 79.5,119.5C 75.6451,122.36 71.8118,125.36 68,128.5C 67.6381,126.021 68.4714,124.021 70.5,122.5C 71.9063,122.027 72.573,121.027 72.5,119.5C 72.8564,117.81 73.8564,116.81 75.5,116.5 Z" data-index="21"></path></g>
<g></g>
<g><path style="opacity:0.212" fill="#c3d8c8" d="M 72.5,119.5 C 72.573,121.027 71.9063,122.027 70.5,122.5C 70.427,120.973 71.0937,119.973 72.5,119.5 Z" data-index="23"></path></g>
<g><path style="opacity:1" fill="#47714c" d="M 125.5,118.5 C 125.719,119.675 125.386,120.675 124.5,121.5C 118.694,123.572 113.027,125.905 107.5,128.5C 102.06,133.413 96.0604,137.413 89.5,140.5C 99.6967,130.321 111.697,122.988 125.5,118.5 Z" data-index="24"></path></g>
<g><path style="opacity:1" fill="#7ba663" d="M 410.5,119.5 C 417.62,129.524 422.62,140.524 425.5,152.5C 423.297,147.781 420.797,143.114 418,138.5C 417.271,134.274 415.438,130.607 412.5,127.5C 411.619,124.87 410.952,122.203 410.5,119.5 Z" data-index="25"></path></g>
<g><path style="opacity:0.996" fill="#577f5a" d="M 193.5,115.5 C 195.028,115.517 195.528,116.184 195,117.5C 189.25,123.384 183.75,129.384 178.5,135.5C 178.357,133.738 178.691,132.071 179.5,130.5C 183.834,124.545 188.501,119.545 193.5,115.5 Z" data-index="26"></path></g>
<g></g>
<g><path style="opacity:0.208" fill="#b5c4b9" d="M 195.5,143.5 C 195.573,145.027 194.906,146.027 193.5,146.5C 193.427,144.973 194.094,143.973 195.5,143.5 Z" data-index="28"></path></g>
<g><path style="opacity:1" fill="#43714a" d="M 327.5,154.5 C 320.596,151.771 313.596,149.271 306.5,147C 305.944,146.617 305.611,146.117 305.5,145.5C 305.917,144.876 306.584,144.543 307.5,144.5C 311.013,145.932 314.68,146.765 318.5,147C 320.891,148.309 320.891,149.309 318.5,150C 320.833,150.333 323.167,150.667 325.5,151C 326.305,152.113 326.972,153.279 327.5,154.5 Z" data-index="29"></path></g>
<g><path style="opacity:1" fill="#59835c" d="M 174.5,139.5 C 169.743,146.685 164.743,153.685 159.5,160.5C 157.516,157.139 158.516,155.472 162.5,155.5C 162.5,153.833 162.5,152.167 162.5,150.5C 163.675,150.719 164.675,150.386 165.5,149.5C 167.173,144.834 170.173,141.5 174.5,139.5 Z" data-index="30"></path></g>
<g><path style="opacity:1" fill="#2b4f38" d="M 208.5,126.5 C 204.956,131.624 202.456,137.291 201,143.5C 197.7,145.557 197.867,146.557 201.5,146.5C 201.281,147.675 201.614,148.675 202.5,149.5C 205.521,147.577 208.854,146.577 212.5,146.5C 203.377,150.604 194.71,155.604 186.5,161.5C 185.508,161.672 184.842,161.338 184.5,160.5C 187.035,155.531 190.035,150.865 193.5,146.5C 194.906,146.027 195.573,145.027 195.5,143.5C 199.536,137.482 203.87,131.815 208.5,126.5 Z" data-index="31"></path></g>
<g></g>
<g><path style="opacity:0.502" fill="#7b9c7f" d="M 361.5,157.5 C 362.486,161.97 362.819,166.637 362.5,171.5C 359.937,170.912 357.604,169.912 355.5,168.5C 357.5,168.5 359.5,168.5 361.5,168.5C 361.5,164.833 361.5,161.167 361.5,157.5 Z" data-index="33"></path></g>
<g><path style="opacity:0.776" fill="#90b07a" d="M 318.5,172.5 C 315.751,172.726 313.084,172.393 310.5,171.5C 309.614,172.325 309.281,173.325 309.5,174.5C 307.564,173.571 305.897,172.237 304.5,170.5C 309.458,169.494 314.124,170.161 318.5,172.5 Z" data-index="34"></path></g>
<g><path style="opacity:0.984" fill="#537f58" d="M 159.5,160.5 C 156.67,166.83 153.337,172.83 149.5,178.5C 150.042,173.419 151.709,168.752 154.5,164.5C 155.605,162.389 157.271,161.055 159.5,160.5 Z" data-index="35"></path></g>
<g><path style="opacity:0.996" fill="#88af74" d="M 311.5,176.5 C 313.593,177.045 315.593,177.878 317.5,179C 320.553,182.264 323.719,185.43 327,188.5C 327.483,189.448 327.649,190.448 327.5,191.5C 322.468,186.133 317.135,181.133 311.5,176.5 Z" data-index="36"></path></g>
<g><path style="opacity:0.961" fill="#6b8e6a" d="M 149.5,179.5 C 148.127,183.711 146.46,187.711 144.5,191.5C 144.061,186.487 145.728,182.487 149.5,179.5 Z" data-index="37"></path></g>
<g><path style="opacity:1" fill="#407045" d="M 63.5,170.5 C 63.8957,173.044 63.229,175.211 61.5,177C 61.8333,177.333 62.1667,177.667 62.5,178C 60.4311,178.324 60.0977,179.158 61.5,180.5C 58.2014,183.79 55.5348,187.457 53.5,191.5C 52.7604,194.836 52.0938,198.17 51.5,201.5C 50.675,202.386 49.675,202.719 48.5,202.5C 47.1236,207.368 46.2902,212.368 46,217.5C 45.6667,216.833 45.3333,216.167 45,215.5C 44.0656,216.858 43.2323,218.192 42.5,219.5C 46.5411,201.767 53.5411,185.433 63.5,170.5 Z" data-index="38"></path></g>
<g><path style="opacity:1" fill="#184c2b" d="M 131.5,215.5 C 130.504,215.414 129.671,215.748 129,216.5C 128.769,212.416 128.102,208.416 127,204.5C 124.833,203.667 123.333,202.167 122.5,200C 117.531,200.759 112.531,200.593 107.5,199.5C 104.979,200.089 102.479,200.755 100,201.5C 97.194,201.561 95.5274,200.228 95,197.5C 93.7432,199.746 91.9099,201.079 89.5,201.5C 89.6567,202.873 89.49,204.207 89,205.5C 86.0546,209.751 82.888,213.751 79.5,217.5C 81.6286,211.242 84.7953,205.575 89,200.5C 95.3234,193.207 101.657,185.874 108,178.5C 114.885,172.276 121.718,166.11 128.5,160C 129.793,159.51 131.127,159.343 132.5,159.5C 131.5,170.162 130.5,180.829 129.5,191.5C 130.168,199.505 130.834,207.505 131.5,215.5 Z" data-index="39"></path></g>
<g><path style="opacity:1" fill="#7aa762" d="M 344.5,180.5 C 354.748,185.027 365.081,189.361 375.5,193.5C 375.38,194.586 374.713,195.253 373.5,195.5C 369.315,193.189 364.982,191.022 360.5,189C 358.101,188.289 355.768,188.456 353.5,189.5C 353.496,188.133 352.83,186.633 351.5,185C 348.187,184.828 345.854,183.328 344.5,180.5 Z" data-index="40"></path></g>
<g><path style="opacity: 1;" fill="#7dab60" d="M 426.5,154.5 C 434.869,185.829 434.369,217.162 425,248.5C 423.414,252.669 421.58,256.669 419.5,260.5C 420.26,254.511 420.927,248.511 421.5,242.5C 423.02,239.421 423.853,236.088 424,232.5C 424.333,232.167 424.667,231.833 425,231.5C 425.333,233.833 425.667,236.167 426,238.5C 429.511,225.445 431.011,212.111 430.5,198.5C 430.5,192.167 430.5,185.833 430.5,179.5C 425.599,179.828 424.765,178.494 428,175.5C 428.21,168.463 427.71,161.463 426.5,154.5 Z" data-index="41"></path></g>
<g><path style="opacity:1" fill="#17472a" d="M 131.5,215.5 C 132.649,220.769 133.483,226.102 134,231.5C 134.422,233.426 135.589,234.426 137.5,234.5C 138.261,242.538 139.261,250.538 140.5,258.5C 139.167,261.5 139.167,264.5 140.5,267.5C 137.234,267.567 135.734,265.901 136,262.5C 134.491,261.91 132.991,261.244 131.5,260.5C 131.709,259.914 132.043,259.414 132.5,259C 129.354,258.89 128.354,257.557 129.5,255C 127.773,255.526 126.106,255.359 124.5,254.5C 118.529,248.557 113.529,241.891 109.5,234.5C 110.953,233.175 110.619,232.342 108.5,232C 109.747,230.542 109.747,229.042 108.5,227.5C 109.263,226.281 110.263,225.281 111.5,224.5C 110.311,223.571 108.978,223.238 107.5,223.5C 107.5,224.5 107.5,225.5 107.5,226.5C 104.708,226.452 102.875,227.785 102,230.5C 100.605,229.185 99.6054,229.519 99,231.5C 98.2797,229.888 98.4464,228.388 99.5,227C 97.3594,226.116 95.6927,226.616 94.5,228.5C 89.544,229.494 84.544,229.827 79.5,229.5C 79.6495,228.448 79.4828,227.448 79,226.5C 77.7998,228.412 76.1331,229.745 74,230.5C 73.7104,232.044 73.0437,233.377 72,234.5C 69.2205,247.126 65.7205,259.626 61.5,272C 61.6448,272.772 61.9781,273.439 62.5,274C 61.7747,278.285 61.108,282.619 60.5,287C 61.0897,302.058 62.0897,316.891 63.5,331.5C 62.8826,331.389 62.3826,331.056 62,330.5C 56.5746,301.126 58.0746,272.126 66.5,243.5C 69.2278,236.825 72.0612,230.158 75,223.5C 76.1532,221.182 77.6532,219.182 79.5,217.5C 82.888,213.751 86.0546,209.751 89,205.5C 89.49,204.207 89.6567,202.873 89.5,201.5C 91.9099,201.079 93.7432,199.746 95,197.5C 95.5274,200.228 97.194,201.561 100,201.5C 102.479,200.755 104.979,200.089 107.5,199.5C 112.531,200.593 117.531,200.759 122.5,200C 123.333,202.167 124.833,203.667 127,204.5C 128.102,208.416 128.769,212.416 129,216.5C 129.671,215.748 130.504,215.414 131.5,215.5 Z" data-index="42"></path></g>
<g><path style="opacity:0.737" fill="#9cc184" d="M 336.5,202.5 C 337.959,202.433 339.292,202.766 340.5,203.5C 342.759,208.357 344.759,213.357 346.5,218.5C 343.597,212.923 340.263,207.59 336.5,202.5 Z" data-index="43"></path></g>
<g><path style="opacity: 1; visibility: visible;" fill="#71af4e" d="M 430.5,198.5 C 431.011,212.111 429.511,225.445 426,238.5C 425.667,236.167 425.333,233.833 425,231.5C 424.667,231.833 424.333,232.167 424,232.5C 423.853,236.088 423.02,239.421 421.5,242.5C 420.305,242.134 419.639,241.301 419.5,240C 420.148,238.56 420.481,237.06 420.5,235.5C 419.5,235.5 418.5,235.5 417.5,235.5C 418.008,230.061 416.008,229.395 411.5,233.5C 408.111,231.51 404.444,231.01 400.5,232C 399.809,233.067 399.309,234.234 399,235.5C 398.667,234.833 398.333,234.167 398,233.5C 396.737,237.234 394.904,240.567 392.5,243.5C 397.501,229.843 401.334,215.843 404,201.5C 404.853,199.875 405.853,199.542 407,200.5C 407.49,199.207 407.657,197.873 407.5,196.5C 413.366,194.574 418.533,195.574 423,199.5C 425.33,197.453 427.83,197.12 430.5,198.5 Z" data-index="44"></path></g>
<g><path style="opacity:1" fill="#19442b" d="M 109.5,234.5 C 108.341,233.544 107.174,232.544 106,231.5C 91.371,245.651 81.371,262.651 76,282.5C 74.1547,289.57 72.6547,296.57 71.5,303.5C 70.3434,311.656 70.1768,319.99 71,328.5C 71.21,330.058 71.71,331.391 72.5,332.5C 73.296,337.147 73.9627,341.814 74.5,346.5C 74.2594,348.898 74.9261,350.898 76.5,352.5C 76.5,352.833 76.5,353.167 76.5,353.5C 75.7497,357.479 76.0831,361.479 77.5,365.5C 77.2528,366.713 76.5862,367.38 75.5,367.5C 74.1667,366.833 73.1667,365.833 72.5,364.5C 72.5774,363.25 73.244,362.417 74.5,362C 68.1651,352.831 64.4984,342.665 63.5,331.5C 62.0897,316.891 61.0897,302.058 60.5,287C 61.108,282.619 61.7747,278.285 62.5,274C 61.9781,273.439 61.6448,272.772 61.5,272C 65.7205,259.626 69.2205,247.126 72,234.5C 73.0437,233.377 73.7104,232.044 74,230.5C 76.1331,229.745 77.7998,228.412 79,226.5C 79.4828,227.448 79.6495,228.448 79.5,229.5C 84.544,229.827 89.544,229.494 94.5,228.5C 95.6927,226.616 97.3594,226.116 99.5,227C 98.4464,228.388 98.2797,229.888 99,231.5C 99.6054,229.519 100.605,229.185 102,230.5C 102.875,227.785 104.708,226.452 107.5,226.5C 107.5,225.5 107.5,224.5 107.5,223.5C 108.978,223.238 110.311,223.571 111.5,224.5C 110.263,225.281 109.263,226.281 108.5,227.5C 109.747,229.042 109.747,230.542 108.5,232C 110.619,232.342 110.953,233.175 109.5,234.5 Z" data-index="45"></path></g>
<g><path style="opacity:0.984" fill="#87b271" d="M 458.5,276.5 C 457.833,277.833 457.167,279.167 456.5,280.5C 456.5,279.833 456.5,279.167 456.5,278.5C 455.137,275.855 455.637,273.522 458,271.5C 460.482,253.018 461.149,234.352 460,215.5C 459.5,217.5 459,219.5 458.5,221.5C 458.253,222.713 457.586,223.38 456.5,223.5C 457.328,218.354 458.662,213.354 460.5,208.5C 461.314,210.766 461.814,213.1 462,215.5C 462.667,229.167 462.667,242.833 462,256.5C 461.231,263.27 460.065,269.936 458.5,276.5 Z" data-index="46"></path></g>
<g><path style="opacity: 1; visibility: visible; fill: rgb(108, 171, 76);" fill="#69a949" d="M 456.5,278.5 C 455.504,278.414 454.671,278.748 454,279.5C 452.777,275.795 453.61,272.795 456.5,270.5C 454.653,261.362 453.653,261.696 453.5,271.5C 450.23,271.321 448.563,269.488 448.5,266C 449.37,263.723 450.037,261.389 450.5,259C 449.521,255.196 449.355,251.362 450,247.5C 450.667,248.833 451.333,248.833 452,247.5C 452.88,240.453 454.047,233.453 455.5,226.5C 455.557,225.391 455.89,224.391 456.5,223.5C 457.586,223.38 458.253,222.713 458.5,221.5C 459,219.5 459.5,217.5 460,215.5C 461.149,234.352 460.482,253.018 458,271.5C 455.637,273.522 455.137,275.855 456.5,278.5 Z" data-index="47"></path></g>
<g><path style="opacity: 1; visibility: visible;" fill="#7ebb55" d="M 340.5,203.5 C 358.531,217.487 375.198,232.82 390.5,249.5C 390.604,247.297 391.27,245.297 392.5,243.5C 394.904,240.567 396.737,237.234 398,233.5C 398.333,234.167 398.667,234.833 399,235.5C 399.309,234.234 399.809,233.067 400.5,232C 404.444,231.01 408.111,231.51 411.5,233.5C 416.008,229.395 418.008,230.061 417.5,235.5C 418.5,235.5 419.5,235.5 420.5,235.5C 420.481,237.06 420.148,238.56 419.5,240C 419.639,241.301 420.305,242.134 421.5,242.5C 420.927,248.511 420.26,254.511 419.5,260.5C 416.891,263.272 414.057,265.939 411,268.5C 410.405,269.899 410.572,271.232 411.5,272.5C 410.311,273.429 408.978,273.762 407.5,273.5C 407.5,276.167 407.5,278.833 407.5,281.5C 406.178,281.67 405.011,281.337 404,280.5C 403.784,278.616 403.117,276.949 402,275.5C 402.624,279.38 403.124,283.38 403.5,287.5C 401.712,287.215 400.045,287.548 398.5,288.5C 399.523,290.895 398.523,291.895 395.5,291.5C 394.551,293.737 393.884,296.071 393.5,298.5C 391.661,299.752 389.828,299.752 388,298.5C 388.019,300.107 388.185,301.774 388.5,303.5C 386.801,303.34 385.134,303.506 383.5,304C 384.741,305.487 384.241,306.32 382,306.5C 380.893,306.415 379.893,306.081 379,305.5C 379.135,307.425 379.302,309.425 379.5,311.5C 379.167,311.5 378.833,311.5 378.5,311.5C 375.833,311.5 373.167,311.5 370.5,311.5C 370.5,312.833 370.5,314.167 370.5,315.5C 369.5,315.5 368.5,315.5 367.5,315.5C 367.388,308.825 367.055,302.158 366.5,295.5C 366.339,291.28 367.006,287.28 368.5,283.5C 368.24,281.382 367.24,279.716 365.5,278.5C 362.767,259.756 358.434,241.423 352.5,223.5C 351.5,223.5 350.5,223.5 349.5,223.5C 347.75,222.341 346.75,220.674 346.5,218.5C 344.759,213.357 342.759,208.357 340.5,203.5 Z" data-index="48"></path></g>
<g><path style="opacity:1" fill="#266231" d="M 42.5,219.5 C 41.6836,234.728 41.1836,250.061 41,265.5C 41.539,262.471 42.2057,259.471 43,256.5C 43.4034,261.867 44.07,267.201 45,272.5C 45.3333,271.5 45.6667,270.5 46,269.5C 46.3333,269.833 46.6667,270.167 47,270.5C 50.074,266.394 51.7407,261.728 52,256.5C 52.3333,256.167 52.6667,255.833 53,255.5C 53.4974,258.146 53.6641,260.813 53.5,263.5C 54.5,263.5 55.5,263.5 56.5,263.5C 56.5076,269.208 56.0076,269.541 55,264.5C 53.3059,266.683 53.1393,269.016 54.5,271.5C 55.1924,270.975 55.6924,270.308 56,269.5C 56.3333,269.833 56.6667,270.167 57,270.5C 57.1862,267.964 57.6862,265.631 58.5,263.5C 58.3734,267.61 58.3734,271.776 58.5,276C 57.9785,278.21 57.3118,280.377 56.5,282.5C 57.616,292.138 57.7827,301.805 57,311.5C 56.6667,309.833 56.3333,308.167 56,306.5C 55.9693,311.188 55.136,315.688 53.5,320C 56.5035,322.674 58.1701,326.007 58.5,330C 58.5463,331.728 58.0463,333.228 57,334.5C 55.778,330.686 53.6113,327.686 50.5,325.5C 50.9926,323.194 51.3259,320.861 51.5,318.5C 50.5,318.5 49.5,318.5 48.5,318.5C 46.3917,310.662 45.225,302.662 45,294.5C 42.362,290.935 41.1954,287.101 41.5,283C 40.703,279.255 40.203,275.421 40,271.5C 39.6174,270.944 39.1174,270.611 38.5,270.5C 36.9528,253.149 38.2861,236.149 42.5,219.5 Z" data-index="49"></path></g>
<g><path style="opacity: 1; visibility: visible; fill: rgb(108, 171, 76);" fill="#71aa52" d="M 455.5,226.5 C 454.047,233.453 452.88,240.453 452,247.5C 451.333,248.833 450.667,248.833 450,247.5C 449.355,251.362 449.521,255.196 450.5,259C 450.037,261.389 449.37,263.723 448.5,266C 448.563,269.488 450.23,271.321 453.5,271.5C 453.653,261.696 454.653,261.362 456.5,270.5C 453.61,272.795 452.777,275.795 454,279.5C 454.671,278.748 455.504,278.414 456.5,278.5C 456.5,279.167 456.5,279.833 456.5,280.5C 456.5,282.167 456.5,283.833 456.5,285.5C 455.134,288.889 453.467,292.223 451.5,295.5C 450.52,298.086 450.187,300.753 450.5,303.5C 448.926,309.242 446.593,314.575 443.5,319.5C 443.336,316.813 443.503,314.146 444,311.5C 445.546,309.301 447.046,307.134 448.5,305C 449.065,299.227 450.065,293.56 451.5,288C 449.98,283.944 448.98,279.777 448.5,275.5C 446.326,275.92 444.326,275.92 442.5,275.5C 441.686,273.234 441.186,270.9 441,268.5C 439.137,270.624 437.137,272.624 435,274.5C 434.508,277.639 433.175,280.306 431,282.5C 429.549,284.464 427.716,285.797 425.5,286.5C 430.902,278.708 436.069,270.708 441,262.5C 446.337,250.645 451.17,238.645 455.5,226.5 Z" data-index="50"></path></g>
<g><path style="opacity: 1;" fill="#90bf6c" d="M 419.5,260.5 C 415.752,270.549 410.418,279.549 403.5,287.5C 403.124,283.38 402.624,279.38 402,275.5C 403.117,276.949 403.784,278.616 404,280.5C 405.011,281.337 406.178,281.67 407.5,281.5C 407.5,278.833 407.5,276.167 407.5,273.5C 408.978,273.762 410.311,273.429 411.5,272.5C 410.572,271.232 410.405,269.899 411,268.5C 414.057,265.939 416.891,263.272 419.5,260.5 Z" data-index="51"></path></g>
<g><path style="opacity:1" fill="#375341" d="M 124.5,254.5 C 126.106,255.359 127.773,255.526 129.5,255C 128.354,257.557 129.354,258.89 132.5,259C 132.043,259.414 131.709,259.914 131.5,260.5C 132.991,261.244 134.491,261.91 136,262.5C 135.734,265.901 137.234,267.567 140.5,267.5C 139.167,264.5 139.167,261.5 140.5,258.5C 142.292,264.807 144.626,270.974 147.5,277C 147,277.167 146.5,277.333 146,277.5C 137.575,270.911 130.408,263.245 124.5,254.5 Z" data-index="52"></path></g>
<g><path style="opacity:0.38" fill="#a1b4a1" d="M 346.5,275.5 C 345.768,274.192 344.934,272.858 344,271.5C 343.722,272.416 343.222,273.082 342.5,273.5C 342.565,271.304 343.232,269.304 344.5,267.5C 345.795,270.012 346.461,272.679 346.5,275.5 Z" data-index="53"></path></g>
<g><path style="opacity:1" fill="#337935" d="M 117.5,277.5 C 119.107,282.612 121.774,287.112 125.5,291C 125.167,291.333 124.833,291.667 124.5,292C 126.025,293.009 127.692,293.509 129.5,293.5C 129.5,295.167 129.5,296.833 129.5,298.5C 130.978,298.238 132.311,298.571 133.5,299.5C 136.94,302.862 140.273,306.362 143.5,310C 145.407,311.122 147.407,311.955 149.5,312.5C 153.115,314.451 156.448,316.785 159.5,319.5C 161.985,324.92 166.318,327.587 172.5,327.5C 175.485,328.326 178.151,329.659 180.5,331.5C 181.588,333 182.921,334.333 184.5,335.5C 190.335,337.668 196.335,339.168 202.5,340C 203.891,341.02 205.391,341.853 207,342.5C 212.072,341.529 217.238,341.195 222.5,341.5C 222.5,342.167 222.833,342.5 223.5,342.5C 221.369,343.314 219.036,343.814 216.5,344C 198.5,344.667 180.5,344.667 162.5,344C 153.444,342.318 144.444,340.485 135.5,338.5C 143.565,362.99 156.898,383.99 175.5,401.5C 175.57,404.567 176.904,406.9 179.5,408.5C 180.689,409.429 182.022,409.762 183.5,409.5C 183.5,410.833 183.5,412.167 183.5,413.5C 184.675,413.281 185.675,413.614 186.5,414.5C 185.915,417.503 185.248,420.503 184.5,423.5C 182.546,424.68 180.379,425.346 178,425.5C 175.122,425.146 172.289,424.979 169.5,425C 170.167,425.333 170.833,425.667 171.5,426C 170.359,426.741 170.359,427.575 171.5,428.5C 171.167,429.5 170.5,430.167 169.5,430.5C 167.419,427.594 164.086,425.761 159.5,425C 158.13,423.559 157.13,421.892 156.5,420C 152.752,420.22 149.752,418.887 147.5,416C 146.207,415.51 144.873,415.343 143.5,415.5C 137.537,411.205 132.204,406.205 127.5,400.5C 126.454,398.215 126.454,395.882 127.5,393.5C 125.738,393.643 124.071,393.309 122.5,392.5C 118.388,388.94 115.888,384.606 115,379.5C 113.649,377.981 112.149,376.648 110.5,375.5C 109.754,374.264 109.421,372.93 109.5,371.5C 108.5,371.5 107.5,371.5 106.5,371.5C 105.78,367.055 103.78,363.388 100.5,360.5C 94.6223,348.191 90.9556,335.191 89.5,321.5C 90.3068,312.244 90.8068,302.91 91,293.5C 91.3933,288.073 93.2266,283.24 96.5,279C 96.7448,275.266 96.7448,271.433 96.5,267.5C 97.1792,264.293 98.3459,261.293 100,258.5C 100.908,256.561 102.408,255.561 104.5,255.5C 108.317,263.133 112.65,270.466 117.5,277.5 Z" data-index="54"></path></g>
<g><path style="opacity: 1; visibility: visible; fill: rgb(108, 171, 76);" fill="#6cab4c" d="M 443.5,319.5 C 443.5,319.833 443.5,320.167 443.5,320.5C 441.857,320.48 440.524,321.147 439.5,322.5C 438.366,325.167 437.366,327.833 436.5,330.5C 435.5,330.5 434.5,330.5 433.5,330.5C 432.12,335.402 430.454,340.069 428.5,344.5C 425.606,345.882 423.106,347.882 421,350.5C 420.667,350.167 420.333,349.833 420,349.5C 419.781,350.938 419.281,352.271 418.5,353.5C 417.325,352.145 416.325,352.312 415.5,354C 416.38,355.356 416.714,356.856 416.5,358.5C 415.167,358.5 413.833,358.5 412.5,358.5C 412.5,361.833 410.833,363.5 407.5,363.5C 406.793,361.769 405.793,360.103 404.5,358.5C 407.021,356.74 407.854,354.407 407,351.5C 403.85,349.839 402.35,350.839 402.5,354.5C 401.5,354.5 400.5,354.5 399.5,354.5C 399.205,347.774 399.538,341.108 400.5,334.5C 398.091,333.278 396.258,333.945 395,336.5C 391.161,335.176 387.661,333.176 384.5,330.5C 382.952,333.007 381.952,332.674 381.5,329.5C 382.961,326.824 385.294,325.324 388.5,325C 389.527,323.134 390.527,321.3 391.5,319.5C 403.799,309.535 415.132,298.535 425.5,286.5C 427.716,285.797 429.549,284.464 431,282.5C 433.175,280.306 434.508,277.639 435,274.5C 437.137,272.624 439.137,270.624 441,268.5C 441.186,270.9 441.686,273.234 442.5,275.5C 444.326,275.92 446.326,275.92 448.5,275.5C 448.98,279.777 449.98,283.944 451.5,288C 450.065,293.56 449.065,299.227 448.5,305C 447.046,307.134 445.546,309.301 444,311.5C 443.503,314.146 443.336,316.813 443.5,319.5 Z" data-index="55"></path></g>
<g><path style="opacity:1" fill="#94c072" d="M 349.5,223.5 C 350.5,223.5 351.5,223.5 352.5,223.5C 358.434,241.423 362.767,259.756 365.5,278.5C 367.24,279.716 368.24,281.382 368.5,283.5C 367.006,287.28 366.339,291.28 366.5,295.5C 367.055,302.158 367.388,308.825 367.5,315.5C 368.5,315.5 369.5,315.5 370.5,315.5C 370.5,314.167 370.5,312.833 370.5,311.5C 373.167,311.5 375.833,311.5 378.5,311.5C 375.091,314.437 371.257,316.771 367,318.5C 365.263,307.258 364.263,295.925 364,284.5C 362.464,273.817 360.797,263.15 359,252.5C 356.027,242.722 352.86,233.056 349.5,223.5 Z" data-index="56"></path></g>
<g><path style="opacity:1" fill="#4d814e" d="M 96.5,267.5 C 96.7448,271.433 96.7448,275.266 96.5,279C 93.2266,283.24 91.3933,288.073 91,293.5C 90.8068,302.91 90.3068,312.244 89.5,321.5C 86.4326,302.807 88.7659,284.807 96.5,267.5 Z" data-index="57"></path></g>
<g><path style="opacity:0.475" fill="#b1d0a5" d="M 458.5,276.5 C 458.58,279.781 457.913,282.781 456.5,285.5C 456.5,283.833 456.5,282.167 456.5,280.5C 457.167,279.167 457.833,277.833 458.5,276.5 Z" data-index="58"></path></g>
<g><path style="opacity:1" fill="#3a723b" d="M 346.5,275.5 C 346.5,276.5 346.5,277.5 346.5,278.5C 346.294,281.495 346.96,284.162 348.5,286.5C 350.074,297.431 351.074,308.431 351.5,319.5C 351.5,326.167 351.5,332.833 351.5,339.5C 350.521,336.375 350.187,333.042 350.5,329.5C 350.756,325.731 350.423,322.064 349.5,318.5C 349.157,314.961 348.49,311.461 347.5,308C 348.333,303.512 348.5,299.012 348,294.5C 346.913,291.309 346.08,287.975 345.5,284.5C 344.081,286.958 343.081,289.625 342.5,292.5C 341.914,292.291 341.414,291.957 341,291.5C 340.148,292.571 339.315,293.571 338.5,294.5C 338.5,292.833 338.5,291.167 338.5,289.5C 339.627,284.118 340.96,278.785 342.5,273.5C 343.222,273.082 343.722,272.416 344,271.5C 344.934,272.858 345.768,274.192 346.5,275.5 Z" data-index="59"></path></g>
<g><path style="opacity:0.298" fill="#9fc1a3" d="M 346.5,278.5 C 347.768,280.905 348.435,283.572 348.5,286.5C 346.96,284.162 346.294,281.495 346.5,278.5 Z" data-index="60"></path></g>
<g><path style="opacity:0.984" fill="#518450" d="M 117.5,277.5 C 127.479,289.812 138.146,301.479 149.5,312.5C 147.407,311.955 145.407,311.122 143.5,310C 140.273,306.362 136.94,302.862 133.5,299.5C 132.311,298.571 130.978,298.238 129.5,298.5C 129.5,296.833 129.5,295.167 129.5,293.5C 127.692,293.509 126.025,293.009 124.5,292C 124.833,291.667 125.167,291.333 125.5,291C 121.774,287.112 119.107,282.612 117.5,277.5 Z" data-index="61"></path></g>
<g><path style="opacity:1" fill="#9ac173" d="M 403.5,287.5 C 401.195,292.136 397.862,295.803 393.5,298.5C 393.884,296.071 394.551,293.737 395.5,291.5C 398.523,291.895 399.523,290.895 398.5,288.5C 400.045,287.548 401.712,287.215 403.5,287.5 Z" data-index="62"></path></g>
<g><path style="opacity:1" fill="#48724e" d="M 38.5,270.5 C 39.1174,270.611 39.6174,270.944 40,271.5C 40.203,275.421 40.703,279.255 41.5,283C 41.1954,287.101 42.362,290.935 45,294.5C 45.225,302.662 46.3917,310.662 48.5,318.5C 49.5,318.5 50.5,318.5 51.5,318.5C 51.3259,320.861 50.9926,323.194 50.5,325.5C 42.9427,308.056 38.9427,289.723 38.5,270.5 Z" data-index="63"></path></g>
<g><path style="opacity:1" fill="#91ba77" d="M 456.5,285.5 C 455.471,291.921 453.471,297.921 450.5,303.5C 450.187,300.753 450.52,298.086 451.5,295.5C 453.467,292.223 455.134,288.889 456.5,285.5 Z" data-index="64"></path></g>
<g></g>
<g><path style="opacity:1" fill="#327935" d="M 349.5,318.5 C 347.787,317.365 347.12,315.698 347.5,313.5C 346.325,313.281 345.325,313.614 344.5,314.5C 343.855,315.732 343.689,317.065 344,318.5C 341.848,319.885 339.515,320.885 337,321.5C 336.055,321.095 335.388,320.428 335,319.5C 334.191,322.623 332.691,325.289 330.5,327.5C 328.954,326.788 327.954,325.622 327.5,324C 328.856,322.433 329.523,320.6 329.5,318.5C 328.5,318.5 327.5,318.5 326.5,318.5C 329.241,315.01 330.908,311.01 331.5,306.5C 334.57,302.992 336.903,298.992 338.5,294.5C 339.315,293.571 340.148,292.571 341,291.5C 341.414,291.957 341.914,292.291 342.5,292.5C 343.081,289.625 344.081,286.958 345.5,284.5C 346.08,287.975 346.913,291.309 348,294.5C 348.5,299.012 348.333,303.512 347.5,308C 348.49,311.461 349.157,314.961 349.5,318.5 Z" data-index="66"></path></g>
<g><path style="opacity:1" fill="#275e34" d="M 66.5,243.5 C 58.0746,272.126 56.5746,301.126 62,330.5C 62.3826,331.056 62.8826,331.389 63.5,331.5C 64.4984,342.665 68.1651,352.831 74.5,362C 73.244,362.417 72.5774,363.25 72.5,364.5C 63.3072,352.631 55.9739,339.631 50.5,325.5C 53.6113,327.686 55.778,330.686 57,334.5C 58.0463,333.228 58.5463,331.728 58.5,330C 58.1701,326.007 56.5035,322.674 53.5,320C 55.136,315.688 55.9693,311.188 56,306.5C 56.3333,308.167 56.6667,309.833 57,311.5C 57.7827,301.805 57.616,292.138 56.5,282.5C 57.3118,280.377 57.9785,278.21 58.5,276C 58.3734,271.776 58.3734,267.61 58.5,263.5C 59.0604,261.199 59.5604,258.866 60,256.5C 62.0675,252.14 64.2342,247.807 66.5,243.5 Z" data-index="67"></path></g>
<g><path style="opacity:1" fill="#9ac479" d="M 393.5,298.5 C 389.481,303.518 384.815,307.851 379.5,311.5C 379.302,309.425 379.135,307.425 379,305.5C 379.893,306.081 380.893,306.415 382,306.5C 384.241,306.32 384.741,305.487 383.5,304C 385.134,303.506 386.801,303.34 388.5,303.5C 388.185,301.774 388.019,300.107 388,298.5C 389.828,299.752 391.661,299.752 393.5,298.5 Z" data-index="68"></path></g>
<g><path style="opacity:1" fill="#398137" d="M 349.5,318.5 C 350.423,322.064 350.756,325.731 350.5,329.5C 349.778,329.918 349.278,330.584 349,331.5C 348.667,331.167 348.333,330.833 348,330.5C 346.718,333.742 345.218,336.908 343.5,340C 334.862,344.925 326.862,350.091 319.5,355.5C 319.167,354.833 318.833,354.167 318.5,353.5C 319.529,348.476 320.195,343.642 320.5,339C 317.894,338.55 316.561,337.05 316.5,334.5C 315.5,334.5 314.5,334.5 313.5,334.5C 316.255,331.889 318.921,329.056 321.5,326C 322.793,325.51 324.127,325.343 325.5,325.5C 325.448,323.097 325.781,320.764 326.5,318.5C 327.5,318.5 328.5,318.5 329.5,318.5C 329.523,320.6 328.856,322.433 327.5,324C 327.954,325.622 328.954,326.788 330.5,327.5C 332.691,325.289 334.191,322.623 335,319.5C 335.388,320.428 336.055,321.095 337,321.5C 339.515,320.885 341.848,319.885 344,318.5C 343.689,317.065 343.855,315.732 344.5,314.5C 345.325,313.614 346.325,313.281 347.5,313.5C 347.12,315.698 347.787,317.365 349.5,318.5 Z" data-index="69"></path></g>
<g><path style="opacity:0.226" fill="#6f8a7a" d="M 71.5,303.5 C 71.3068,313.194 71.6401,322.861 72.5,332.5C 71.71,331.391 71.21,330.058 71,328.5C 70.1768,319.99 70.3434,311.656 71.5,303.5 Z" data-index="70"></path></g>
<g><path style="opacity:1" fill="#8ab66d" d="M 443.5,320.5 C 439.256,329.029 434.256,337.029 428.5,344.5C 430.454,340.069 432.12,335.402 433.5,330.5C 434.5,330.5 435.5,330.5 436.5,330.5C 437.366,327.833 438.366,325.167 439.5,322.5C 440.524,321.147 441.857,320.48 443.5,320.5 Z" data-index="71"></path></g>
<g></g>
<g><path style="opacity:0.996" fill="#608c61" d="M 159.5,319.5 C 164.041,321.932 168.375,324.599 172.5,327.5C 166.318,327.587 161.985,324.92 159.5,319.5 Z" data-index="73"></path></g>
<g><path style="opacity:0.196" fill="#c7e1c3" d="M 351.5,319.5 C 352.328,325.987 352.828,332.654 353,339.5C 353.671,338.748 354.504,338.414 355.5,338.5C 354.462,340.519 353.128,340.853 351.5,339.5C 351.5,332.833 351.5,326.167 351.5,319.5 Z" data-index="74"></path></g>
<g></g>
<g><path style="opacity: 1; visibility: visible; fill: rgb(108, 171, 76);" fill="#66a648" d="M 381.5,329.5 C 381.952,332.674 382.952,333.007 384.5,330.5C 387.661,333.176 391.161,335.176 395,336.5C 396.258,333.945 398.091,333.278 400.5,334.5C 399.538,341.108 399.205,347.774 399.5,354.5C 400.5,354.5 401.5,354.5 402.5,354.5C 402.35,350.839 403.85,349.839 407,351.5C 407.854,354.407 407.021,356.74 404.5,358.5C 405.793,360.103 406.793,361.769 407.5,363.5C 406.659,365.379 406.325,367.379 406.5,369.5C 404.883,370.038 403.216,370.371 401.5,370.5C 401.286,368.856 401.62,367.356 402.5,366C 401.167,365.333 399.833,365.333 398.5,366C 401.588,369.877 401.088,373.044 397,375.5C 396.035,373.74 394.868,373.406 393.5,374.5C 394.309,376.071 394.643,377.738 394.5,379.5C 392.833,379.5 391.167,379.5 389.5,379.5C 388.224,382.767 386.224,385.434 383.5,387.5C 381.533,387.739 379.699,387.406 378,386.5C 377.508,387.549 377.674,388.549 378.5,389.5C 376.234,390.314 373.9,390.814 371.5,391C 369.422,394.831 366.088,396.831 361.5,397C 359.525,399.092 357.525,400.925 355.5,402.5C 349.697,405.101 343.697,407.101 337.5,408.5C 336.5,408.5 335.5,408.5 334.5,408.5C 333.251,406.864 331.584,405.697 329.5,405C 331.345,403.872 333.345,403.372 335.5,403.5C 335.5,404.5 335.5,405.5 335.5,406.5C 340.869,405.423 346.202,404.09 351.5,402.5C 350.167,401.833 348.833,401.167 347.5,400.5C 349.108,399.682 350.775,399.015 352.5,398.5C 353.83,396.653 353.497,395.153 351.5,394C 353.333,392.5 355.167,391 357,389.5C 358,390.167 359,390.833 360,391.5C 362.087,390.206 364.254,389.039 366.5,388C 364.5,387.667 362.5,387.333 360.5,387C 363.331,385.417 365.997,383.584 368.5,381.5C 369.736,380.754 371.07,380.421 372.5,380.5C 372.705,377.012 373.539,373.679 375,370.5C 375.317,372.301 375.984,372.634 377,371.5C 378.092,367.463 379.092,363.129 380,358.5C 381.064,356.731 382.231,355.064 383.5,353.5C 383.167,352.833 382.833,352.167 382.5,351.5C 381.28,352.711 380.113,352.711 379,351.5C 378.163,349.649 377.329,347.816 376.5,346C 378.645,345.257 378.811,344.424 377,343.5C 376.055,343.905 375.388,344.572 375,345.5C 372.135,341.776 368.635,339.109 364.5,337.5C 369.726,334.1 375.393,331.434 381.5,329.5 Z" data-index="76"></path></g>
<g><path style="opacity:0.996" fill="#5b8a5a" d="M 180.5,331.5 C 194.164,336.732 208.164,340.065 222.5,341.5C 217.238,341.195 212.072,341.529 207,342.5C 205.391,341.853 203.891,341.02 202.5,340C 196.335,339.168 190.335,337.668 184.5,335.5C 182.921,334.333 181.588,333 180.5,331.5 Z" data-index="77"></path></g>
<g></g>
<g><path style="opacity: 0.345; visibility: hidden;" fill="#a0ada2" d="M 237.5,341.5 C 240.976,340.357 244.642,340.19 248.5,341C 247.756,342.039 246.756,342.539 245.5,342.5C 243.052,341.527 240.385,341.194 237.5,341.5 Z" data-index="79"></path></g>
<g><path style="opacity:0.22" fill="#9aaa9f" d="M 74.5,346.5 C 75.7384,348.214 76.405,350.214 76.5,352.5C 74.9261,350.898 74.2594,348.898 74.5,346.5 Z" data-index="80"></path></g>
<g><path style="opacity: 1;" fill="#1d562d" d="M 223.5,342.5 C 228.833,342.5 234.167,342.5 239.5,342.5C 239.5,343.5 239.5,344.5 239.5,345.5C 235.29,345.183 231.456,346.183 228,348.5C 227.228,348.355 226.561,348.022 226,347.5C 224.577,349.345 223.41,351.345 222.5,353.5C 221.264,354.246 219.93,354.579 218.5,354.5C 218.5,355.5 218.5,356.5 218.5,357.5C 215.482,357.704 212.482,358.037 209.5,358.5C 209.169,360.322 208.502,361.989 207.5,363.5C 207.167,363.5 206.833,363.5 206.5,363.5C 204.62,363.229 203.287,363.896 202.5,365.5C 201.609,366.11 200.609,366.443 199.5,366.5C 194.016,366.438 192.183,369.105 194,374.5C 195.333,375.833 196.667,377.167 198,378.5C 198.383,377.944 198.883,377.611 199.5,377.5C 200.184,381.534 201.518,385.201 203.5,388.5C 205.745,390.361 208.412,391.361 211.5,391.5C 213.167,392.5 214.5,393.833 215.5,395.5C 216.605,397.713 216.605,399.88 215.5,402C 217.49,403.751 219.823,404.751 222.5,405C 223.337,406.011 223.67,407.178 223.5,408.5C 226.869,409.267 229.702,410.934 232,413.5C 233.239,419.056 233.906,424.722 234,430.5C 236.374,434.116 239.208,434.449 242.5,431.5C 248.586,433.58 254.252,436.246 259.5,439.5C 248.255,438.272 237.255,435.938 226.5,432.5C 207.77,425.122 190.77,414.789 175.5,401.5C 156.898,383.99 143.565,362.99 135.5,338.5C 144.444,340.485 153.444,342.318 162.5,344C 180.5,344.667 198.5,344.667 216.5,344C 219.036,343.814 221.369,343.314 223.5,342.5 Z" data-index="81"></path></g>
<g><path style="opacity: 1; visibility: visible; display: block;" fill="#4a913e" d="M 350.5,329.5 C 350.187,333.042 350.521,336.375 351.5,339.5C 353.128,340.853 354.462,340.519 355.5,338.5C 355.833,338.5 356.167,338.5 356.5,338.5C 357.492,338.328 358.158,338.662 358.5,339.5C 357.711,339.783 357.044,340.283 356.5,341C 362.854,340.435 363.854,342.101 359.5,346C 363.36,350.395 364.36,355.395 362.5,361C 363.167,361.667 363.833,362.333 364.5,363C 362.449,365.02 360.116,366.52 357.5,367.5C 338.317,375.389 318.317,379.889 297.5,381C 301.697,376.776 305.03,371.942 307.5,366.5C 305.827,364.477 305.16,362.144 305.5,359.5C 301.461,358.66 298.461,359.993 296.5,363.5C 294.172,364.724 291.839,364.724 289.5,363.5C 288.281,364.263 287.281,365.263 286.5,366.5C 284.088,365.423 281.754,364.256 279.5,363C 282.032,363.431 284.366,362.598 286.5,360.5C 288.88,361.767 291.046,361.434 293,359.5C 295.452,357.977 297.786,356.31 300,354.5C 300.494,352.866 300.66,351.199 300.5,349.5C 299.127,349.343 297.793,349.51 296.5,350C 295.5,352.333 293.833,354 291.5,355C 285.875,356.643 280.708,359.143 276,362.5C 275.329,361.748 274.496,361.414 273.5,361.5C 280.477,357.517 287.477,353.517 294.5,349.5C 302.394,346.25 308.728,341.25 313.5,334.5C 314.5,334.5 315.5,334.5 316.5,334.5C 316.561,337.05 317.894,338.55 320.5,339C 320.195,343.642 319.529,348.476 318.5,353.5C 318.833,354.167 319.167,354.833 319.5,355.5C 326.862,350.091 334.862,344.925 343.5,340C 345.218,336.908 346.718,333.742 348,330.5C 348.333,330.833 348.667,331.167 349,331.5C 349.278,330.584 349.778,329.918 350.5,329.5 Z" data-index="82"></path></g>
<g><path style="opacity:0.996" fill="#456b4d" d="M 222.5,341.5 C 227.5,341.5 232.5,341.5 237.5,341.5C 240.385,341.194 243.052,341.527 245.5,342.5C 233.324,350.332 220.657,357.332 207.5,363.5C 208.502,361.989 209.169,360.322 209.5,358.5C 212.482,358.037 215.482,357.704 218.5,357.5C 218.5,356.5 218.5,355.5 218.5,354.5C 219.93,354.579 221.264,354.246 222.5,353.5C 223.41,351.345 224.577,349.345 226,347.5C 226.561,348.022 227.228,348.355 228,348.5C 231.456,346.183 235.29,345.183 239.5,345.5C 239.5,344.5 239.5,343.5 239.5,342.5C 234.167,342.5 228.833,342.5 223.5,342.5C 222.833,342.5 222.5,342.167 222.5,341.5 Z" data-index="83"></path></g>
<g><path style="opacity: 1;" fill="#81b067" d="M 428.5,344.5 C 422.627,354.045 415.293,362.378 406.5,369.5C 406.325,367.379 406.659,365.379 407.5,363.5C 410.833,363.5 412.5,361.833 412.5,358.5C 413.833,358.5 415.167,358.5 416.5,358.5C 416.714,356.856 416.38,355.356 415.5,354C 416.325,352.312 417.325,352.145 418.5,353.5C 419.281,352.271 419.781,350.938 420,349.5C 420.333,349.833 420.667,350.167 421,350.5C 423.106,347.882 425.606,345.882 428.5,344.5 Z" data-index="84"></path></g>
<g><path style="opacity: 1; visibility: visible; fill: rgb(108, 171, 76); display: block;" fill="#5fa145" d="M 364.5,337.5 C 368.635,339.109 372.135,341.776 375,345.5C 375.388,344.572 376.055,343.905 377,343.5C 378.811,344.424 378.645,345.257 376.5,346C 377.329,347.816 378.163,349.649 379,351.5C 380.113,352.711 381.28,352.711 382.5,351.5C 382.833,352.167 383.167,352.833 383.5,353.5C 382.231,355.064 381.064,356.731 380,358.5C 379.092,363.129 378.092,367.463 377,371.5C 375.984,372.634 375.317,372.301 375,370.5C 373.539,373.679 372.705,377.012 372.5,380.5C 371.07,380.421 369.736,380.754 368.5,381.5C 365.997,383.584 363.331,385.417 360.5,387C 362.5,387.333 364.5,387.667 366.5,388C 364.254,389.039 362.087,390.206 360,391.5C 359,390.833 358,390.167 357,389.5C 355.167,391 353.333,392.5 351.5,394C 353.497,395.153 353.83,396.653 352.5,398.5C 350.775,399.015 349.108,399.682 347.5,400.5C 348.833,401.167 350.167,401.833 351.5,402.5C 346.202,404.09 340.869,405.423 335.5,406.5C 335.5,405.5 335.5,404.5 335.5,403.5C 333.345,403.372 331.345,403.872 329.5,405C 331.584,405.697 333.251,406.864 334.5,408.5C 323.967,410.622 313.301,411.622 302.5,411.5C 291.467,411.296 280.467,410.63 269.5,409.5C 269.167,409.5 268.833,409.5 268.5,409.5C 265.501,406.338 261.834,404.172 257.5,403C 259.434,401.647 261.267,400.147 263,398.5C 264.067,399.191 265.234,399.691 266.5,400C 266.167,400.333 265.833,400.667 265.5,401C 277.73,403.47 290.063,404.47 302.5,404C 303.337,402.989 303.67,401.822 303.5,400.5C 295.37,401.947 287.37,401.78 279.5,400C 281.433,399.749 283.266,399.249 285,398.5C 290.474,398.414 295.807,398.747 301,399.5C 301.772,399.355 302.439,399.022 303,398.5C 303.494,396.866 303.66,395.199 303.5,393.5C 307.756,394.019 311.423,392.853 314.5,390C 320.262,388.865 325.762,387.032 331,384.5C 331.494,382.866 331.66,381.199 331.5,379.5C 334.898,379.82 338.232,379.487 341.5,378.5C 344.055,377.056 346.721,375.889 349.5,375C 351.037,373.89 351.703,372.39 351.5,370.5C 354.313,370.975 356.313,369.975 357.5,367.5C 360.116,366.52 362.449,365.02 364.5,363C 363.833,362.333 363.167,361.667 362.5,361C 364.36,355.395 363.36,350.395 359.5,346C 363.854,342.101 362.854,340.435 356.5,341C 357.044,340.283 357.711,339.783 358.5,339.5C 361.082,339.975 363.082,339.308 364.5,337.5 Z" data-index="85"></path></g>
<g><path style="opacity:0.894" fill="#7ca37c" d="M 100.5,360.5 C 103.78,363.388 105.78,367.055 106.5,371.5C 104.132,368.09 102.132,364.424 100.5,360.5 Z" data-index="86"></path></g>
<g><path style="opacity:0.02" fill="#a6ccc2" d="M 206.5,363.5 C 205.486,364.674 204.153,365.34 202.5,365.5C 203.287,363.896 204.62,363.229 206.5,363.5 Z" data-index="87"></path></g>
<g><path style="opacity:1" fill="#41584a" d="M 76.5,353.5 C 79.421,361.916 82.7544,370.249 86.5,378.5C 85.9984,379.521 85.3317,379.688 84.5,379C 80.8796,375.559 77.8796,371.725 75.5,367.5C 76.5862,367.38 77.2528,366.713 77.5,365.5C 76.0831,361.479 75.7497,357.479 76.5,353.5 Z" data-index="88"></path></g>
<g><path style="opacity:1" fill="#4c7055" d="M 199.5,366.5 C 197.9,367.644 196.233,368.811 194.5,370C 196.797,372.099 198.464,374.599 199.5,377.5C 198.883,377.611 198.383,377.944 198,378.5C 196.667,377.167 195.333,375.833 194,374.5C 192.183,369.105 194.016,366.438 199.5,366.5 Z" data-index="89"></path></g>
<g><path style="opacity:1" fill="#568654" d="M 106.5,371.5 C 107.5,371.5 108.5,371.5 109.5,371.5C 109.421,372.93 109.754,374.264 110.5,375.5C 112.149,376.648 113.649,377.981 115,379.5C 115.888,384.606 118.388,388.94 122.5,392.5C 124.071,393.309 125.738,393.643 127.5,393.5C 126.454,395.882 126.454,398.215 127.5,400.5C 118.567,392.234 111.567,382.567 106.5,371.5 Z" data-index="90"></path></g>
<g><path style="opacity: 1;" fill="#85b16c" d="M 406.5,369.5 C 399.699,376.638 392.032,382.638 383.5,387.5C 386.224,385.434 388.224,382.767 389.5,379.5C 391.167,379.5 392.833,379.5 394.5,379.5C 394.643,377.738 394.309,376.071 393.5,374.5C 394.868,373.406 396.035,373.74 397,375.5C 401.088,373.044 401.588,369.877 398.5,366C 399.833,365.333 401.167,365.333 402.5,366C 401.62,367.356 401.286,368.856 401.5,370.5C 403.216,370.371 404.883,370.038 406.5,369.5 Z" data-index="91"></path></g>
<g><path style="opacity: 1; visibility: visible;" fill="#589c43" d="M 357.5,367.5 C 356.313,369.975 354.313,370.975 351.5,370.5C 351.703,372.39 351.037,373.89 349.5,375C 346.721,375.889 344.055,377.056 341.5,378.5C 338.232,379.487 334.898,379.82 331.5,379.5C 331.66,381.199 331.494,382.866 331,384.5C 325.762,387.032 320.262,388.865 314.5,390C 311.423,392.853 307.756,394.019 303.5,393.5C 303.66,395.199 303.494,396.866 303,398.5C 302.439,399.022 301.772,399.355 301,399.5C 295.807,398.747 290.474,398.414 285,398.5C 283.266,399.249 281.433,399.749 279.5,400C 287.37,401.78 295.37,401.947 303.5,400.5C 303.67,401.822 303.337,402.989 302.5,404C 290.063,404.47 277.73,403.47 265.5,401C 265.833,400.667 266.167,400.333 266.5,400C 265.234,399.691 264.067,399.191 263,398.5C 261.267,400.147 259.434,401.647 257.5,403C 261.834,404.172 265.501,406.338 268.5,409.5C 264.216,408.739 260.216,407.405 256.5,405.5C 256.063,403.926 255.063,402.759 253.5,402C 248.417,400.624 243.75,398.457 239.5,395.5C 239.123,393.176 238.123,392.509 236.5,393.5C 235.316,389.159 232.483,386.825 228,386.5C 227.517,385.552 227.351,384.552 227.5,383.5C 224.09,383.616 222.756,381.95 223.5,378.5C 226.777,378.216 229.943,378.549 233,379.5C 237.066,377.436 240.9,375.103 244.5,372.5C 254.321,369.373 263.988,365.706 273.5,361.5C 274.496,361.414 275.329,361.748 276,362.5C 280.708,359.143 285.875,356.643 291.5,355C 293.833,354 295.5,352.333 296.5,350C 297.793,349.51 299.127,349.343 300.5,349.5C 300.66,351.199 300.494,352.866 300,354.5C 297.786,356.31 295.452,357.977 293,359.5C 291.046,361.434 288.88,361.767 286.5,360.5C 284.366,362.598 282.032,363.431 279.5,363C 281.754,364.256 284.088,365.423 286.5,366.5C 287.281,365.263 288.281,364.263 289.5,363.5C 291.839,364.724 294.172,364.724 296.5,363.5C 298.461,359.993 301.461,358.66 305.5,359.5C 305.16,362.144 305.827,364.477 307.5,366.5C 305.03,371.942 301.697,376.776 297.5,381C 318.317,379.889 338.317,375.389 357.5,367.5 Z" data-index="92"></path></g>
<g><path style="opacity:1" fill="#496a50" d="M 199.5,377.5 C 203.096,382.436 207.096,387.103 211.5,391.5C 208.412,391.361 205.745,390.361 203.5,388.5C 201.518,385.201 200.184,381.534 199.5,377.5 Z" data-index="93"></path></g>
<g><path style="opacity: 1;" fill="#7fab68" d="M 383.5,387.5 C 374.98,393.954 365.647,398.954 355.5,402.5C 357.525,400.925 359.525,399.092 361.5,397C 366.088,396.831 369.422,394.831 371.5,391C 373.9,390.814 376.234,390.314 378.5,389.5C 377.674,388.549 377.508,387.549 378,386.5C 379.699,387.406 381.533,387.739 383.5,387.5 Z" data-index="94"></path></g>
<g><path style="opacity:1" fill="#72a15f" d="M 244.5,372.5 C 240.9,375.103 237.066,377.436 233,379.5C 229.943,378.549 226.777,378.216 223.5,378.5C 222.756,381.95 224.09,383.616 227.5,383.5C 227.351,384.552 227.517,385.552 228,386.5C 232.483,386.825 235.316,389.159 236.5,393.5C 238.123,392.509 239.123,393.176 239.5,395.5C 243.75,398.457 248.417,400.624 253.5,402C 255.063,402.759 256.063,403.926 256.5,405.5C 241.519,400.517 229.185,391.85 219.5,379.5C 219.709,378.914 220.043,378.414 220.5,378C 228.536,376.157 236.536,374.323 244.5,372.5 Z" data-index="95"></path></g>
<g><path style="opacity:1" fill="#7fac69" d="M 334.5,408.5 C 335.5,408.5 336.5,408.5 337.5,408.5C 318.214,413.594 298.547,414.761 278.5,412C 275.258,411.594 272.258,410.761 269.5,409.5C 280.467,410.63 291.467,411.296 302.5,411.5C 313.301,411.622 323.967,410.622 334.5,408.5 Z" data-index="96"></path></g>
<g><path style="opacity: 1;" fill="#327636" d="M 175.5,401.5 C 190.77,414.789 207.77,425.122 226.5,432.5C 227.6,433.558 228.934,434.392 230.5,435C 246.351,439.651 261.684,443.317 276.5,446C 274.744,446.202 273.078,446.702 271.5,447.5C 274.282,448.952 276.782,448.619 279,446.5C 279.791,448.604 281.291,449.937 283.5,450.5C 279.29,452.002 275.29,451.669 271.5,449.5C 270.119,451.691 268.119,453.024 265.5,453.5C 260.544,454.494 255.544,454.827 250.5,454.5C 246.818,454.665 243.152,454.499 239.5,454C 240.5,453.667 241.5,453.333 242.5,453C 229.806,451.496 217.139,449.663 204.5,447.5C 200.048,446.572 195.714,445.238 191.5,443.5C 190.097,442.069 188.431,440.902 186.5,440C 185.207,439.51 183.873,439.343 182.5,439.5C 168.024,433.769 155.024,425.769 143.5,415.5C 144.873,415.343 146.207,415.51 147.5,416C 149.752,418.887 152.752,420.22 156.5,420C 157.13,421.892 158.13,423.559 159.5,425C 164.086,425.761 167.419,427.594 169.5,430.5C 170.5,430.167 171.167,429.5 171.5,428.5C 170.359,427.575 170.359,426.741 171.5,426C 170.833,425.667 170.167,425.333 169.5,425C 172.289,424.979 175.122,425.146 178,425.5C 180.379,425.346 182.546,424.68 184.5,423.5C 185.248,420.503 185.915,417.503 186.5,414.5C 185.675,413.614 184.675,413.281 183.5,413.5C 183.5,412.167 183.5,410.833 183.5,409.5C 182.022,409.762 180.689,409.429 179.5,408.5C 176.904,406.9 175.57,404.567 175.5,401.5 Z" data-index="97"></path></g>
<g><path style="opacity:0.51" fill="#839588" d="M 250.5,419.5 C 253.241,419.707 255.574,420.707 257.5,422.5C 254.654,422.448 252.32,421.448 250.5,419.5 Z" data-index="98"></path></g>
<g><path style="opacity: 1;" fill="#34583f" d="M 229.5,407.5 C 236.525,411.503 243.525,415.503 250.5,419.5C 252.32,421.448 254.654,422.448 257.5,422.5C 263.381,424.125 269.047,426.125 274.5,428.5C 270.896,429.245 267.229,429.078 263.5,428C 257.672,425.177 251.839,422.343 246,419.5C 244.644,420.38 243.144,420.714 241.5,420.5C 241.657,419.127 241.49,417.793 241,416.5C 236.513,414.348 232.346,411.848 228.5,409C 229.056,408.617 229.389,408.117 229.5,407.5 Z" data-index="99"></path></g>
<g><path style="opacity: 1;" fill="#1a4f2b" d="M 215.5,395.5 C 219.942,399.956 224.609,403.956 229.5,407.5C 229.389,408.117 229.056,408.617 228.5,409C 232.346,411.848 236.513,414.348 241,416.5C 241.49,417.793 241.657,419.127 241.5,420.5C 243.144,420.714 244.644,420.38 246,419.5C 251.839,422.343 257.672,425.177 263.5,428C 267.229,429.078 270.896,429.245 274.5,428.5C 275.167,428.5 275.833,428.5 276.5,428.5C 278.688,431.065 279.688,434.065 279.5,437.5C 282.36,437.916 284.526,436.916 286,434.5C 289.841,434.202 293.674,434.869 297.5,436.5C 297.065,439.613 298.065,440.279 300.5,438.5C 312.87,441.43 325.036,440.43 337,435.5C 338.03,435.836 338.53,436.503 338.5,437.5C 334.438,439.622 330.105,441.122 325.5,442C 326.056,442.383 326.389,442.883 326.5,443.5C 325.5,443.5 324.5,443.5 323.5,443.5C 322.129,442.213 320.295,441.547 318,441.5C 302.703,442.487 287.203,442.654 271.5,442C 267.233,441.811 263.233,440.977 259.5,439.5C 254.252,436.246 248.586,433.58 242.5,431.5C 239.208,434.449 236.374,434.116 234,430.5C 233.906,424.722 233.239,419.056 232,413.5C 229.702,410.934 226.869,409.267 223.5,408.5C 223.67,407.178 223.337,406.011 222.5,405C 219.823,404.751 217.49,403.751 215.5,402C 216.605,399.88 216.605,397.713 215.5,395.5 Z" data-index="100"></path></g>
<g></g>
<g><path style="opacity:1" fill="#234d31" d="M 276.5,428.5 C 299.328,434.298 322.328,434.965 345.5,430.5C 348.082,430.025 350.082,430.692 351.5,432.5C 350.18,433.942 348.514,434.608 346.5,434.5C 345.85,434.196 345.183,433.863 344.5,433.5C 342.169,434.526 340.169,435.86 338.5,437.5C 338.53,436.503 338.03,435.836 337,435.5C 325.036,440.43 312.87,441.43 300.5,438.5C 298.065,440.279 297.065,439.613 297.5,436.5C 293.674,434.869 289.841,434.202 286,434.5C 284.526,436.916 282.36,437.916 279.5,437.5C 279.688,434.065 278.688,431.065 276.5,428.5 Z" data-index="102"></path></g>
<g><path style="opacity:0.8" fill="#84a885" d="M 182.5,439.5 C 183.873,439.343 185.207,439.51 186.5,440C 188.431,440.902 190.097,442.069 191.5,443.5C 188.053,442.917 185.053,441.584 182.5,439.5 Z" data-index="103"></path></g>
<g><path style="opacity:0.996" fill="#5f8364" d="M 346.5,434.5 C 340.616,438.989 333.949,441.989 326.5,443.5C 326.389,442.883 326.056,442.383 325.5,442C 330.105,441.122 334.438,439.622 338.5,437.5C 340.169,435.86 342.169,434.526 344.5,433.5C 345.183,433.863 345.85,434.196 346.5,434.5 Z" data-index="104"></path></g>
<g><path style="opacity: 1;" fill="#306e37" d="M 226.5,432.5 C 237.255,435.938 248.255,438.272 259.5,439.5C 263.233,440.977 267.233,441.811 271.5,442C 287.203,442.654 302.703,442.487 318,441.5C 320.295,441.547 322.129,442.213 323.5,443.5C 320.171,443.264 317.171,444.097 314.5,446C 310.848,446.499 307.182,446.665 303.5,446.5C 303.5,447.5 303.5,448.5 303.5,449.5C 301.801,449.38 300.135,449.046 298.5,448.5C 289.523,451.334 280.523,453.668 271.5,455.5C 264.449,456.715 257.449,456.715 250.5,455.5C 250.5,455.167 250.5,454.833 250.5,454.5C 255.544,454.827 260.544,454.494 265.5,453.5C 268.119,453.024 270.119,451.691 271.5,449.5C 275.29,451.669 279.29,452.002 283.5,450.5C 281.291,449.937 279.791,448.604 279,446.5C 276.782,448.619 274.282,448.952 271.5,447.5C 273.078,446.702 274.744,446.202 276.5,446C 261.684,443.317 246.351,439.651 230.5,435C 228.934,434.392 227.6,433.558 226.5,432.5 Z" data-index="105"></path></g>
<g><path style="opacity:1" fill="#49784e" d="M 323.5,443.5 C 324.5,443.5 325.5,443.5 326.5,443.5C 317.656,447.555 308.323,450.222 298.5,451.5C 295.772,451.171 293.438,451.837 291.5,453.5C 284.885,454.635 278.218,455.302 271.5,455.5C 280.523,453.668 289.523,451.334 298.5,448.5C 300.135,449.046 301.801,449.38 303.5,449.5C 303.5,448.5 303.5,447.5 303.5,446.5C 307.182,446.665 310.848,446.499 314.5,446C 317.171,444.097 320.171,443.264 323.5,443.5 Z" data-index="106"></path></g>
<g><path style="opacity: 1;" fill="#568557" d="M 204.5,447.5 C 217.139,449.663 229.806,451.496 242.5,453C 241.5,453.333 240.5,453.667 239.5,454C 243.152,454.499 246.818,454.665 250.5,454.5C 250.5,454.833 250.5,455.167 250.5,455.5C 234.593,455.405 219.26,452.739 204.5,447.5 Z" data-index="107"></path></g>
<g><path style="opacity:0.216" fill="#a9c5ab" d="M 298.5,451.5 C 296.401,452.612 294.067,453.279 291.5,453.5C 293.438,451.837 295.772,451.171 298.5,451.5 Z" data-index="108"></path></g>
<path d="" fill="url(#grad-109)" fill-rule="nonzero" stroke="url(#grad-109)" stroke-width="0.25" stroke-linecap="butt" stroke-linejoin="miter" stroke-miterlimit="10" stroke-dasharray="" stroke-dashoffset="0" font-family="none" font-weight="none" font-size="none" text-anchor="none" style="mix-blend-mode: normal; display: none;" data-index="109"></path></svg>