<?xml version="1.0" encoding="UTF-8"?>
<svg xmlns="http://www.w3.org/2000/svg" xmlns:xlink="http://www.w3.org/1999/xlink" width="200px" height="200px" viewBox="0 0 200 200" version="1.1">
<g id="surface1">
<path style=" stroke:none;fill-rule:nonzero;fill:rgb(1.568628%,1.176471%,1.176471%);fill-opacity:1;" d="M 103.757812 104.148438 C 104.289062 104.148438 104.816406 104.144531 105.359375 104.140625 C 114.972656 104.152344 123.054688 106.097656 131.796875 110.121094 C 133.492188 110.890625 135.195312 111.574219 136.9375 112.230469 C 141.847656 114.113281 145.660156 115.6875 148.4375 120.3125 C 148.695312 121.085938 148.953125 121.859375 149.21875 122.65625 C 154.015625 121.882812 158.636719 120.664062 163.273438 119.230469 C 163.835938 119.058594 164.394531 118.886719 164.972656 118.710938 C 167.308594 117.992188 169.640625 117.273438 171.96875 116.535156 C 188.675781 111.246094 188.675781 111.246094 195.75 114.601562 C 199.007812 117.6875 200.359375 120.355469 200.488281 124.851562 C 200.375 128.203125 200.015625 130.386719 197.949219 133.054688 C 191.167969 139.386719 180.828125 142.703125 172.414062 146.289062 C 170.367188 147.167969 168.320312 148.046875 166.273438 148.925781 C 165.765625 149.144531 165.253906 149.363281 164.730469 149.589844 C 158.679688 152.1875 152.664062 154.863281 146.65625 157.546875 C 145.527344 158.046875 145.527344 158.046875 144.378906 158.558594 C 143.398438 158.992188 143.398438 158.992188 142.402344 159.441406 C 131.699219 163.757812 121.578125 159.371094 111.636719 155.242188 C 103.28125 151.890625 96.476562 152.628906 88.058594 155.566406 C 85.9375 156.25 85.9375 156.25 83.59375 156.25 C 83.851562 157.023438 84.109375 157.796875 84.375 158.59375 C 84.667969 162.566406 84.464844 164.792969 82.03125 167.96875 C 80.179688 169.109375 78.46875 170.046875 76.515625 170.945312 C 76.015625 171.191406 75.519531 171.433594 75.003906 171.683594 C 71.347656 173.4375 71.347656 173.4375 69.53125 173.4375 C 69.804688 174.097656 70.078125 174.757812 70.359375 175.4375 C 71.230469 178.621094 71.234375 180.425781 70.3125 183.59375 C 66.675781 187.503906 61.65625 190.300781 56.296875 190.867188 C 54.6875 190.625 54.6875 190.625 53.125 189.84375 C 50.703125 190.664062 50.703125 190.664062 48.4375 192.1875 C 48.101562 193.132812 48.101562 193.132812 47.757812 194.09375 C 46.320312 197.351562 43.746094 197.949219 40.589844 199.253906 C 37.476562 200.261719 34.433594 201.019531 31.25 200 C 28.109375 197.242188 26.386719 194.585938 24.640625 190.808594 C 24.398438 190.292969 24.160156 189.777344 23.910156 189.25 C 23.125 187.5625 22.355469 185.871094 21.582031 184.179688 C 21.035156 183 20.488281 181.820312 19.941406 180.636719 C 18.230469 176.941406 16.535156 173.238281 14.84375 169.53125 C 14.285156 168.3125 13.726562 167.09375 13.167969 165.875 C 10.1875 159.359375 7.214844 152.839844 4.277344 146.304688 C 3.566406 144.730469 2.851562 143.160156 2.121094 141.59375 C 1.835938 140.980469 1.550781 140.367188 1.261719 139.738281 C 0.90625 138.980469 0.90625 138.980469 0.542969 138.207031 C -0.457031 135.464844 -0.828125 132.5 0 129.6875 C 3.03125 126.132812 6.234375 124.390625 10.390625 122.496094 C 11.011719 122.207031 11.632812 121.914062 12.273438 121.617188 C 13.582031 121.011719 14.894531 120.410156 16.207031 119.8125 C 18.207031 118.898438 20.191406 117.964844 22.179688 117.03125 C 23.457031 116.441406 24.738281 115.855469 26.015625 115.269531 C 26.605469 114.988281 27.191406 114.710938 27.796875 114.425781 C 31.746094 112.65625 34.730469 112.0625 39.0625 112.5 C 41.433594 114.410156 42.847656 116.222656 44.53125 118.75 C 45.183594 118.410156 45.835938 118.074219 46.503906 117.726562 C 56.859375 112.601562 56.859375 112.601562 61.71875 114.0625 C 63.867188 115.65625 63.867188 115.65625 65.625 117.1875 C 66.136719 116.847656 66.648438 116.507812 67.175781 116.15625 C 79.121094 108.359375 89.386719 104.210938 103.757812 104.148438 Z M 103.757812 104.148438 "/>
<path style=" stroke:none;fill-rule:nonzero;fill:rgb(98.431373%,84.705883%,13.725491%);fill-opacity:1;" d="M 157.03125 3.125 C 158.023438 3.609375 158.023438 3.609375 159.03125 4.101562 C 167.636719 8.71875 173.203125 16.132812 176.414062 25.234375 C 176.90625 26.90625 176.90625 26.90625 177.34375 29.6875 C 176.828125 30.460938 176.3125 31.234375 175.78125 32.03125 C 175.535156 33.941406 175.535156 33.941406 175.585938 35.988281 C 175.582031 36.671875 175.578125 37.359375 175.574219 38.066406 C 175.613281 40 175.613281 40 177.34375 41.40625 C 177.046875 49.667969 173.539062 56.507812 167.96875 62.5 C 165.960938 64.339844 163.925781 66.121094 161.824219 67.859375 C 158.871094 70.820312 158.40625 73.792969 158.378906 77.871094 C 158.363281 78.710938 158.347656 79.550781 158.332031 80.417969 C 158.3125 82.167969 158.296875 83.917969 158.289062 85.667969 C 158.148438 92.222656 157.269531 96.578125 152.539062 101.414062 C 147.828125 104.585938 143.21875 106.289062 137.5 105.46875 C 132.921875 104.296875 128.996094 102.515625 126.328125 98.457031 C 123.316406 92.980469 122.929688 88.398438 123 82.226562 C 123.261719 74.488281 123.261719 74.488281 119.53125 67.96875 C 117.90625 66.429688 117.90625 66.429688 116.164062 65.085938 C 112.144531 61.613281 109.523438 57.789062 107.03125 53.125 C 106.691406 52.496094 106.351562 51.863281 106 51.214844 C 102.476562 43.359375 102.421875 32.3125 105.125 24.171875 C 106 22.222656 106 22.222656 107.03125 20.3125 C 107.613281 19.222656 107.613281 19.222656 108.210938 18.109375 C 113.539062 9.011719 120.988281 3.3125 131.179688 0.347656 C 139.503906 -1.421875 149.507812 -0.835938 157.03125 3.125 Z M 157.03125 3.125 "/>
<path style=" stroke:none;fill-rule:nonzero;fill:rgb(98.823529%,77.64706%,71.372551%);fill-opacity:1;" d="M 133.59375 117.96875 C 134.320312 118.316406 135.046875 118.664062 135.796875 119.019531 C 141.171875 121.640625 141.171875 121.640625 142.96875 123.4375 C 143.402344 127.527344 143.402344 127.527344 142.003906 129.453125 C 139.707031 131.144531 137.683594 130.433594 134.976562 130.074219 C 130.8125 129.332031 126.769531 128.199219 122.703125 127.0625 C 118.019531 125.773438 118.019531 125.773438 113.28125 126.5625 C 113.28125 127.59375 113.28125 128.625 113.28125 129.6875 C 116.464844 130.621094 119.65625 131.523438 122.851562 132.421875 C 123.742188 132.683594 124.632812 132.945312 125.550781 133.210938 C 131.3125 134.816406 136.96875 136.015625 142.96875 135.15625 C 145.085938 133.429688 145.085938 133.429688 146.875 131.25 C 151.671875 128.679688 157.082031 127.375 162.300781 125.949219 C 164.90625 125.226562 167.476562 124.417969 170.046875 123.585938 C 170.832031 123.335938 171.613281 123.089844 172.421875 122.832031 C 173.976562 122.335938 175.527344 121.832031 177.074219 121.316406 C 181.734375 119.84375 186.503906 118.574219 191.40625 119.53125 C 193.574219 121.160156 193.726562 121.71875 194.140625 124.511719 C 193.746094 127.375 193.324219 128.285156 191.265625 130.207031 C 188.046875 132.566406 184.296875 134.035156 180.664062 135.644531 C 179.769531 136.050781 178.871094 136.453125 177.949219 136.871094 C 175.148438 138.132812 172.339844 139.378906 169.53125 140.625 C 168.65625 141.015625 167.785156 141.40625 166.882812 141.808594 C 161.992188 143.988281 157.09375 146.140625 152.175781 148.265625 C 150.160156 149.148438 148.15625 150.054688 146.15625 150.96875 C 139.121094 154.136719 133 156.6875 125.359375 153.984375 C 121.5625 152.519531 117.839844 150.925781 114.121094 149.269531 C 110.953125 147.90625 108.15625 147.128906 104.6875 146.875 C 103.859375 146.804688 103.027344 146.734375 102.171875 146.660156 C 95.566406 146.457031 90.539062 147.628906 84.4375 149.925781 C 82.03125 150.78125 82.03125 150.78125 79.6875 150.78125 C 77.992188 147.285156 76.308594 143.78125 74.636719 140.273438 C 74.066406 139.078125 73.492188 137.886719 72.917969 136.699219 C 72.085938 134.988281 71.269531 133.273438 70.457031 131.554688 C 70.195312 131.023438 69.933594 130.492188 69.667969 129.945312 C 68.699219 127.878906 67.941406 126.261719 68.078125 123.953125 C 69.242188 121.710938 71.253906 120.839844 73.390625 119.578125 C 73.84375 119.308594 74.300781 119.039062 74.773438 118.761719 C 94.128906 107.429688 113.613281 108.3125 133.59375 117.96875 Z M 133.59375 117.96875 "/>
<path style=" stroke:none;fill-rule:nonzero;fill:rgb(1.960784%,1.568628%,0.392157%);fill-opacity:1;" d="M 157.03125 3.125 C 158.023438 3.609375 158.023438 3.609375 159.03125 4.101562 C 167.636719 8.71875 173.203125 16.132812 176.414062 25.234375 C 176.90625 26.90625 176.90625 26.90625 177.34375 29.6875 C 176.828125 30.460938 176.3125 31.234375 175.78125 32.03125 C 173.730469 32.179688 173.730469 32.179688 171.875 32.03125 C 171.589844 31.371094 171.308594 30.710938 171.015625 30.03125 C 166.429688 19.679688 161.257812 11.976562 150.40625 7.746094 C 142.078125 5.582031 133.113281 6.214844 125.554688 10.355469 C 118.746094 14.535156 113.800781 20.320312 111.261719 27.9375 C 109.640625 36.707031 110.621094 45.851562 115.234375 53.515625 C 117.839844 57.222656 121.152344 60.035156 124.617188 62.925781 C 126.722656 65.003906 127.800781 66.800781 128.90625 69.53125 C 128.90625 70.304688 128.90625 71.078125 128.90625 71.875 C 131.742188 71.875 134.578125 71.875 137.5 71.875 C 138.714844 57.535156 138.714844 57.535156 133.386719 44.90625 C 131.460938 43.058594 129.492188 41.429688 127.34375 39.84375 C 125.78125 38.28125 125.78125 38.28125 125.632812 36.28125 C 125.78125 34.375 125.78125 34.375 126.5625 33.59375 C 128.257812 33.226562 128.257812 33.226562 130.46875 33.59375 C 132.339844 35.085938 133.847656 36.855469 135.398438 38.671875 C 135.828125 39.15625 136.257812 39.640625 136.703125 40.140625 C 137.757812 41.335938 138.800781 42.542969 139.84375 43.75 C 143.878906 42.207031 146.066406 38.660156 148.722656 35.417969 C 150.78125 33.59375 150.78125 33.59375 153.375 33.332031 C 154.066406 33.417969 154.757812 33.503906 155.46875 33.59375 C 156.03125 35.359375 156.03125 35.359375 156.25 37.5 C 155.152344 39.027344 155.152344 39.027344 153.515625 40.476562 C 152.328125 41.550781 151.15625 42.644531 150 43.75 C 149.53125 44.144531 149.066406 44.542969 148.585938 44.949219 C 145.167969 48.203125 144.148438 50.667969 143.828125 55.394531 C 143.789062 57.371094 143.78125 59.351562 143.796875 61.328125 C 143.785156 62.34375 143.773438 63.359375 143.761719 64.40625 C 143.734375 66.894531 143.730469 69.382812 143.75 71.875 C 146.585938 71.875 149.421875 71.875 152.34375 71.875 C 152.601562 70.585938 152.859375 69.296875 153.125 67.96875 C 155.550781 64 158.304688 61.28125 161.832031 58.289062 C 166.167969 54.527344 168.234375 49.769531 170.109375 44.453125 C 170.65625 42.96875 170.65625 42.96875 171.875 40.625 C 173.875 39.796875 173.875 39.796875 175.78125 39.84375 C 176.296875 40.359375 176.8125 40.875 177.34375 41.40625 C 177.046875 49.667969 173.539062 56.507812 167.96875 62.5 C 165.960938 64.339844 163.925781 66.121094 161.824219 67.859375 C 158.871094 70.820312 158.40625 73.792969 158.378906 77.871094 C 158.363281 78.710938 158.347656 79.550781 158.332031 80.417969 C 158.3125 82.167969 158.296875 83.917969 158.289062 85.667969 C 158.148438 92.222656 157.269531 96.578125 152.539062 101.414062 C 147.828125 104.585938 143.21875 106.289062 137.5 105.46875 C 132.921875 104.296875 128.996094 102.515625 126.328125 98.457031 C 123.316406 92.980469 122.929688 88.398438 123 82.226562 C 123.261719 74.488281 123.261719 74.488281 119.53125 67.96875 C 117.90625 66.429688 117.90625 66.429688 116.164062 65.085938 C 112.144531 61.613281 109.523438 57.789062 107.03125 53.125 C 106.691406 52.496094 106.351562 51.863281 106 51.214844 C 102.476562 43.359375 102.421875 32.3125 105.125 24.171875 C 106 22.222656 106 22.222656 107.03125 20.3125 C 107.613281 19.222656 107.613281 19.222656 108.210938 18.109375 C 113.539062 9.011719 120.988281 3.3125 131.179688 0.347656 C 139.503906 -1.421875 149.507812 -0.835938 157.03125 3.125 Z M 157.03125 3.125 "/>
<path style=" stroke:none;fill-rule:nonzero;fill:rgb(72.156864%,45.490196%,87.058824%);fill-opacity:1;" d="M 37.5 119.53125 C 38.535156 121.199219 39.335938 122.730469 40.128906 124.511719 C 40.367188 125.03125 40.609375 125.550781 40.859375 126.085938 C 41.65625 127.800781 42.433594 129.523438 43.210938 131.25 C 43.761719 132.445312 44.3125 133.640625 44.863281 134.835938 C 46.300781 137.953125 47.726562 141.082031 49.144531 144.207031 C 50.257812 146.664062 51.382812 149.117188 52.503906 151.566406 C 55.207031 157.476562 57.902344 163.386719 60.5625 169.316406 C 61.28125 170.910156 62.015625 172.496094 62.765625 174.078125 C 63.0625 174.703125 63.355469 175.328125 63.660156 175.972656 C 63.910156 176.492188 64.164062 177.015625 64.421875 177.550781 C 64.84375 178.90625 64.84375 178.90625 64.0625 181.25 C 61.714844 182.515625 59.304688 183.546875 56.863281 184.613281 C 54.328125 186.15625 54.011719 187.09375 53.125 189.84375 C 50.25 191.945312 48.339844 192.316406 44.921875 191.796875 C 44.023438 191.652344 44.023438 191.652344 43.101562 191.503906 C 40.574219 191.359375 38.898438 192.5625 36.71875 193.75 C 34.832031 193.820312 34.832031 193.820312 32.8125 192.96875 C 31.53125 190.894531 30.558594 189.007812 29.597656 186.792969 C 29.304688 186.152344 29.011719 185.511719 28.710938 184.851562 C 27.75 182.746094 26.816406 180.628906 25.878906 178.515625 C 25.226562 177.0625 24.570312 175.609375 23.914062 174.160156 C 22.574219 171.199219 21.246094 168.238281 19.921875 165.273438 C 18.109375 161.230469 16.246094 157.21875 14.363281 153.210938 C 13.542969 151.457031 12.726562 149.707031 11.910156 147.953125 C 11.394531 146.847656 10.875 145.746094 10.351562 144.644531 C 9.628906 143.117188 8.921875 141.585938 8.214844 140.050781 C 7.816406 139.195312 7.414062 138.339844 7 137.457031 C 6.144531 134.832031 5.828125 133.753906 7.03125 131.25 C 9.03125 129.992188 10.832031 129.046875 12.980469 128.105469 C 13.578125 127.832031 14.175781 127.558594 14.792969 127.277344 C 16.058594 126.703125 17.328125 126.132812 18.601562 125.570312 C 20.550781 124.710938 22.484375 123.824219 24.417969 122.933594 C 25.648438 122.378906 26.882812 121.824219 28.117188 121.269531 C 28.695312 121.003906 29.273438 120.742188 29.871094 120.46875 C 34.636719 118.386719 34.636719 118.386719 37.5 119.53125 Z M 37.5 119.53125 "/>
<path style=" stroke:none;fill-rule:nonzero;fill:rgb(78.823531%,88.627452%,98.039216%);fill-opacity:1;" d="M 60.15625 121.09375 C 61.34375 122.933594 62.210938 124.558594 63.078125 126.542969 C 63.339844 127.101562 63.597656 127.660156 63.863281 128.234375 C 64.691406 130.03125 65.5 131.835938 66.308594 133.640625 C 66.84375 134.8125 67.382812 135.984375 67.921875 137.152344 C 69.257812 140.0625 70.570312 142.980469 71.871094 145.90625 C 72.667969 147.679688 73.480469 149.445312 74.300781 151.210938 C 74.8125 152.335938 75.324219 153.460938 75.835938 154.585938 C 76.078125 155.101562 76.320312 155.617188 76.570312 156.148438 C 77.480469 158.175781 78.152344 159.742188 78.003906 161.984375 C 76.882812 164.1875 74.929688 164.785156 72.753906 165.820312 C 71.5 166.429688 71.5 166.429688 70.222656 167.054688 C 67.96875 167.96875 67.96875 167.96875 65.625 167.96875 C 62.464844 161.261719 59.316406 154.554688 56.179688 147.839844 C 55.007812 145.324219 53.832031 142.8125 52.648438 140.300781 C 51.628906 138.132812 50.617188 135.960938 49.609375 133.789062 C 49.3125 133.167969 49.015625 132.546875 48.710938 131.90625 C 46.820312 127.777344 46.820312 127.777344 47.085938 125.675781 C 47.980469 123.386719 49.566406 122.992188 51.757812 122.023438 C 52.875 121.507812 52.875 121.507812 54.015625 120.980469 C 56.613281 120.203125 57.632812 120.117188 60.15625 121.09375 Z M 60.15625 121.09375 "/>
<path style=" stroke:none;fill-rule:nonzero;fill:rgb(75.294119%,87.843138%,98.823529%);fill-opacity:1;" d="M 129.6875 78.125 C 136.90625 78.125 144.125 78.125 151.5625 78.125 C 151.660156 81.265625 151.660156 81.265625 151.757812 84.472656 C 151.785156 85.125 151.816406 85.773438 151.84375 86.445312 C 151.90625 90.558594 151.140625 92.820312 148.4375 96.09375 C 145.863281 98.355469 143.824219 99.136719 140.382812 99.460938 C 136.332031 99.121094 134.050781 97.5 131.398438 94.484375 C 129.371094 91.175781 129.597656 87.964844 129.640625 84.226562 C 129.65625 82.214844 129.671875 80.199219 129.6875 78.125 Z M 129.6875 78.125 "/>
<path style=" stroke:none;fill-rule:nonzero;fill:rgb(0%,0%,0%);fill-opacity:1;" d="M 96.09375 39.0625 C 97.65625 41.40625 97.65625 41.40625 97.5625 43.011719 C 96.40625 45.566406 94.277344 45.960938 91.789062 46.960938 C 89.035156 47.945312 86.484375 48.71875 83.59375 49.21875 C 81.25 47.65625 81.25 47.65625 80.859375 45.75 C 81.25 43.75 81.25 43.75 82.765625 42.480469 C 92.023438 38.324219 92.023438 38.324219 96.09375 39.0625 Z M 96.09375 39.0625 "/>
<path style=" stroke:none;fill-rule:nonzero;fill:rgb(0%,0%,0%);fill-opacity:1;" d="M 82.8125 21.09375 C 87.546875 21.296875 92.789062 22.597656 96.875 25 C 97.664062 26.917969 97.664062 26.917969 97.65625 28.90625 C 96.734375 30.351562 96.734375 30.351562 95.3125 31.25 C 90.425781 31.238281 85.554688 28.660156 81.25 26.5625 C 81.152344 24.707031 81.152344 24.707031 81.25 22.65625 C 81.765625 22.140625 82.28125 21.625 82.8125 21.09375 Z M 82.8125 21.09375 "/>
<path style=" stroke:none;fill-rule:nonzero;fill:rgb(0%,0%,0%);fill-opacity:1;" d="M 185.15625 39.0625 C 189.847656 39.320312 196.523438 40.273438 200 43.75 C 200.148438 45.65625 200.148438 45.65625 200 47.65625 C 199.484375 48.171875 198.96875 48.6875 198.4375 49.21875 C 193.460938 48.945312 188.785156 46.679688 184.375 44.53125 C 184.339844 42.96875 184.34375 41.40625 184.375 39.84375 C 184.632812 39.585938 184.890625 39.328125 185.15625 39.0625 Z M 185.15625 39.0625 "/>
<path style=" stroke:none;fill-rule:nonzero;fill:rgb(0%,0%,0%);fill-opacity:1;" d="M 200 21.875 C 200 23.421875 200 24.96875 200 26.5625 C 195.589844 28.710938 190.914062 30.976562 185.9375 31.25 C 184.375 29.6875 184.375 29.6875 184.03125 27.78125 C 184.375 25.78125 184.375 25.78125 185.890625 24.511719 C 194.941406 20.449219 194.941406 20.449219 200 21.875 Z M 200 21.875 "/>
</g>
</svg>
